<?xml version="1.0" encoding="UTF-8" standalone="no"?>
<!-- Created with Inkscape (http://www.inkscape.org/) -->

<svg
   version="1.1"
   id="svg630"
   xml:space="preserve"
   width="28cm"
   height="35cm"
   viewBox="0 0 1058.2677 1322.8347"
   sodipodi:docname="Acrilico Transparente.svg"
   inkscape:version="1.1 (c68e22c387, 2021-05-23)"
   xmlns:inkscape="http://www.inkscape.org/namespaces/inkscape"
   xmlns:sodipodi="http://sodipodi.sourceforge.net/DTD/sodipodi-0.dtd"
   xmlns="http://www.w3.org/2000/svg"
   xmlns:svg="http://www.w3.org/2000/svg"><defs
     id="defs634"><clipPath
       clipPathUnits="userSpaceOnUse"
       id="clipPath672"><path
         d="M 0,1403.15 H 1712.126 V 0 H 0 Z"
         id="path670" /></clipPath><clipPath
       clipPathUnits="userSpaceOnUse"
       id="clipPath734"><path
         d="M 0,1403.15 H 1712.126 V 0 H 0 Z"
         id="path732" /></clipPath><clipPath
       clipPathUnits="userSpaceOnUse"
       id="clipPath792"><path
         d="M 0,1403.15 H 1712.126 V 0 H 0 Z"
         id="path790" /></clipPath></defs><sodipodi:namedview
     id="namedview632"
     pagecolor="#ffffff"
     bordercolor="#999999"
     borderopacity="1"
     inkscape:pageshadow="0"
     inkscape:pageopacity="0"
     inkscape:pagecheckerboard="0"
     showgrid="true"
     inkscape:document-units="cm"
     units="cm"
     inkscape:zoom="1.2230682"
     inkscape:cx="512.23636"
     inkscape:cy="283.30391"
     inkscape:window-width="1920"
     inkscape:window-height="1017"
     inkscape:window-x="-8"
     inkscape:window-y="-8"
     inkscape:window-maximized="1"
     inkscape:current-layer="layer4"
     width="10cm"
     height="31cm"><inkscape:grid
       type="xygrid"
       id="grid898"
       units="cm"
       spacingx="3.7795276"
       spacingy="3.7795276"
       enabled="true"
       empspacing="10"
       visible="true" /></sodipodi:namedview><g
     id="g636"
     inkscape:groupmode="layer"
     inkscape:label="Main Assembly"
     transform="matrix(1.3333333,0,0,-1.3333333,0,1870.8667)"
     style="display:inline"><g
       id="g690"
       transform="translate(737.00792,649.13375)" /><g
       id="g802"
       transform="translate(111.51872,913.56635)" /><g
       inkscape:groupmode="layer"
       id="layer4"
       inkscape:label="Wood Cut"
       style="display:inline"><g
         id="g146"
         transform="translate(28.675397,-28.300598)"><g
           id="g559"
           transform="translate(6.9205562,14.174278)"
           style="display:inline"><g
             id="g794"
             transform="translate(627.87436,1133.8578)"
             style="display:inline"><path
               d="m 0,0 c 0,-2.349 -1.903,-4.252 -4.252,-4.252 -2.348,0 -4.252,1.903 -4.252,4.252 0,2.348 1.904,4.252 4.252,4.252 C -1.903,4.252 0,2.348 0,0 Z"
               style="fill:none;stroke:#000000;stroke-width:0.283;stroke-linecap:round;stroke-linejoin:miter;stroke-miterlimit:11.339;stroke-dasharray:none;stroke-opacity:1"
               id="path796" /></g><g
             id="g798"
             transform="translate(46.772359,1133.8578)"
             style="display:inline"><path
               d="m 0,0 c 0,-2.349 -1.904,-4.252 -4.252,-4.252 -2.349,0 -4.252,1.903 -4.252,4.252 0,2.348 1.903,4.252 4.252,4.252 C -1.904,4.252 0,2.348 0,0 Z"
               style="fill:none;stroke:#000000;stroke-width:0.283;stroke-linecap:round;stroke-linejoin:miter;stroke-miterlimit:11.339;stroke-dasharray:none;stroke-opacity:1"
               id="path800" /></g><path
             d="m 46.772359,1360.6293 c 0,-2.348 -1.904,-4.252 -4.252,-4.252 -2.349,0 -4.252,1.904 -4.252,4.252 0,2.3479 1.903,4.2519 4.252,4.2519 2.348,0 4.252,-1.904 4.252,-4.2519 z"
             style="display:inline;fill:none;stroke:#000000;stroke-width:0.283;stroke-linecap:round;stroke-linejoin:miter;stroke-miterlimit:11.339;stroke-dasharray:none;stroke-opacity:1"
             id="path804" /><g
             id="g806"
             transform="translate(627.87436,1360.6293)"
             style="display:inline"><path
               d="m 0,0 c 0,-2.348 -1.903,-4.252 -4.252,-4.252 -2.348,0 -4.252,1.904 -4.252,4.252 0,2.348 1.904,4.252 4.252,4.252 C -1.903,4.252 0,2.348 0,0 Z"
               style="fill:none;stroke:#000000;stroke-width:0.283;stroke-linecap:round;stroke-linejoin:miter;stroke-miterlimit:11.339;stroke-dasharray:none;stroke-opacity:1"
               id="path808" /></g></g><path
           d="M 679.98605,1120.0145 H 0.0459514 v 283.0897 H 679.98605 Z"
           style="display:inline;fill:none;stroke:#000000;stroke-width:0.374902;stroke-linecap:round;stroke-linejoin:miter;stroke-miterlimit:11.339;stroke-dasharray:none;stroke-opacity:1"
           id="path784" /></g></g></g></svg>
