<svg width="604mm" height="495mm" viewBox="0 0 604 495" xmlns="http://www.w3.org/2000/svg" version="1.1" preserveAspectRatio="xMidYMid meet"><g id="svgGroup" stroke-linecap="round" fill-rule="evenodd" font-size="9pt" stroke="#000" stroke-width="0.25mm" fill="none" style="stroke:#000;stroke-width:0.25mm;fill:none"><path d="M 0 389 L 0 415 L 3 415 L 3 433 L 0 433 L 0 451 L 3 451 L 3 469 L 0 469 L 0 487 L 0 495 L 25 495 L 25 492 L 43 492 L 43 495 L 61 495 L 61 492 L 79 492 L 79 495 L 97 495 L 97 492 L 115 492 L 115 495 L 133 495 L 133 492 L 151 492 L 151 495 L 169 495 L 176 495 L 176 469 L 173 469 L 173 451 L 176 451 L 176 433 L 173 433 L 173 415 L 176 415 L 176 397 L 176 389 L 151 389 L 151 392 L 133 392 L 133 389 L 115 389 L 115 392 L 97 392 L 97 389 L 79 389 L 79 392 L 61 392 L 61 389 L 43 389 L 43 392 L 25 392 L 25 389 L 7 389 L 0 389 Z" id="front_outsideCutPath" stroke="#FF0000" stroke-width="0.1" style="stroke:#FF0000;stroke-width:0.1" vector-effect="non-scaling-stroke"/><path d="M 103.45 450.007 L 101.731 450.007 L 101.731 442.667 A 4.857 4.857 0 0 0 101.676 441.906 Q 101.612 441.505 101.475 441.185 A 2.044 2.044 0 0 0 101.1 440.597 A 1.937 1.937 0 0 0 100.305 440.09 Q 99.993 439.98 99.609 439.939 A 4.555 4.555 0 0 0 99.123 439.914 Q 97.342 439.914 96.514 440.877 Q 95.758 441.756 95.692 443.681 A 11.009 11.009 0 0 0 95.686 444.055 L 95.686 450.007 L 93.968 450.007 L 93.968 438.661 L 95.365 438.661 L 95.645 440.214 L 95.727 440.214 Q 96.255 439.376 97.208 438.915 A 4.653 4.653 0 0 1 98.864 438.473 A 5.627 5.627 0 0 1 99.33 438.454 A 6.784 6.784 0 0 1 100.485 438.546 Q 101.109 438.654 101.602 438.889 A 3.088 3.088 0 0 1 102.415 439.443 A 2.978 2.978 0 0 1 103.14 440.582 Q 103.45 441.417 103.45 442.605 L 103.45 450.007 Z M 70.439 438.661 L 70.439 439.997 L 67.55 439.997 L 67.55 450.007 L 65.832 450.007 L 65.832 439.997 L 63.803 439.997 L 63.803 439.22 L 65.832 438.599 L 65.832 437.968 A 6.964 6.964 0 0 1 65.995 436.39 Q 66.603 433.786 69.486 433.786 A 5.534 5.534 0 0 1 70.269 433.846 Q 70.879 433.933 71.598 434.148 L 71.153 435.525 Q 70.447 435.297 69.887 435.231 A 3.695 3.695 0 0 0 69.455 435.204 A 2.317 2.317 0 0 0 68.897 435.267 A 1.488 1.488 0 0 0 68.016 435.851 A 1.988 1.988 0 0 0 67.753 436.381 Q 67.579 436.899 67.555 437.668 A 8.112 8.112 0 0 0 67.55 437.926 L 67.55 438.661 L 70.439 438.661 Z M 112.197 448.589 L 112.197 449.903 Q 111.917 450.038 111.374 450.126 Q 110.83 450.214 110.396 450.214 A 4.488 4.488 0 0 1 109.073 450.036 Q 107.619 449.587 107.239 448.008 A 5.401 5.401 0 0 1 107.104 446.746 L 107.104 439.997 L 105.479 439.997 L 105.479 439.169 L 107.104 438.454 L 107.828 436.032 L 108.822 436.032 L 108.822 438.661 L 112.114 438.661 L 112.114 439.997 L 108.822 439.997 L 108.822 446.674 A 3.46 3.46 0 0 0 108.872 447.281 Q 108.978 447.874 109.309 448.247 A 1.596 1.596 0 0 0 110.29 448.769 A 2.297 2.297 0 0 0 110.644 448.796 Q 111.1 448.796 111.524 448.728 Q 111.929 448.664 112.174 448.595 A 2.58 2.58 0 0 0 112.197 448.589 Z M 79.041 438.579 L 78.803 440.173 A 7.573 7.573 0 0 0 78.258 440.072 Q 77.986 440.033 77.745 440.022 A 4.03 4.03 0 0 0 77.56 440.017 A 2.977 2.977 0 0 0 75.361 440.968 A 4.073 4.073 0 0 0 75.205 441.135 A 3.924 3.924 0 0 0 74.259 443.339 A 5.216 5.216 0 0 0 74.227 443.92 L 74.227 450.007 L 72.509 450.007 L 72.509 438.661 L 73.927 438.661 L 74.124 440.763 L 74.207 440.763 Q 74.838 439.655 75.728 439.055 A 3.425 3.425 0 0 1 77.685 438.454 A 7.889 7.889 0 0 1 78.391 438.484 A 5.758 5.758 0 0 1 79.041 438.579 Z M 90.798 446.05 A 8.876 8.876 0 0 0 90.955 444.324 A 10.085 10.085 0 0 0 90.952 444.051 Q 90.926 443.106 90.722 442.304 A 5.351 5.351 0 0 0 89.553 440.038 Q 88.15 438.454 85.769 438.454 A 6.674 6.674 0 0 0 84.57 438.557 A 4.545 4.545 0 0 0 81.918 440.002 Q 80.997 441.03 80.688 442.598 A 8.922 8.922 0 0 0 80.531 444.324 A 8.596 8.596 0 0 0 80.639 445.716 A 6.357 6.357 0 0 0 81.173 447.45 A 5.648 5.648 0 0 0 81.298 447.695 A 4.652 4.652 0 0 0 82.995 449.499 A 4.785 4.785 0 0 0 84.093 449.988 A 5.518 5.518 0 0 0 85.697 450.214 Q 88.16 450.214 89.558 448.656 A 4.794 4.794 0 0 0 90.129 447.872 Q 90.594 447.075 90.798 446.05 Z M 82.312 444.324 A 8.702 8.702 0 0 0 82.395 445.567 Q 82.486 446.198 82.678 446.709 A 3.605 3.605 0 0 0 83.181 447.636 A 2.816 2.816 0 0 0 85.016 448.716 A 4.268 4.268 0 0 0 85.738 448.775 A 3.991 3.991 0 0 0 86.791 448.644 A 2.778 2.778 0 0 0 88.3 447.641 Q 89.175 446.508 89.175 444.324 Q 89.175 442.936 88.815 441.976 A 3.538 3.538 0 0 0 88.3 441.037 A 2.827 2.827 0 0 0 86.543 439.989 A 4.334 4.334 0 0 0 85.717 439.914 A 4.089 4.089 0 0 0 84.699 440.033 A 2.737 2.737 0 0 0 83.171 441.022 Q 82.553 441.819 82.379 443.179 A 9.08 9.08 0 0 0 82.312 444.324 Z" id="front_labelLayer" stroke="#777777" fill="#777777" style="stroke:#777777;fill:#777777" vector-effect="non-scaling-stroke"/><path d="M 182 389 L 182 415 L 179 415 L 179 433 L 182 433 L 182 451 L 179 451 L 179 469 L 182 469 L 182 487 L 182 495 L 203 495 L 203 492 L 221 492 L 221 495 L 239 495 L 239 492 L 257 492 L 257 495 L 275 495 L 275 492 L 293 492 L 293 495 L 311 495 L 311 492 L 329 492 L 329 495 L 347 495 L 347 492 L 365 492 L 365 495 L 383 495 L 383 492 L 401 492 L 401 495 L 419 495 L 422 495 L 422 469 L 425 469 L 425 451 L 422 451 L 422 433 L 425 433 L 425 415 L 422 415 L 422 397 L 422 389 L 401 389 L 401 392 L 383 392 L 383 389 L 365 389 L 365 392 L 347 392 L 347 389 L 329 389 L 329 392 L 311 392 L 311 389 L 293 389 L 293 392 L 275 392 L 275 389 L 257 389 L 257 392 L 239 392 L 239 389 L 221 389 L 221 392 L 203 392 L 203 389 L 185 389 L 182 389 Z" id="left_outsideCutPath" stroke="#FF0000" stroke-width="0.1" style="stroke:#FF0000;stroke-width:0.1" vector-effect="non-scaling-stroke"/><path d="M 309.541 438.661 L 309.541 439.997 L 306.653 439.997 L 306.653 450.007 L 304.935 450.007 L 304.935 439.997 L 302.906 439.997 L 302.906 439.22 L 304.935 438.599 L 304.935 437.968 A 6.964 6.964 0 0 1 305.097 436.39 Q 305.705 433.786 308.589 433.786 A 5.534 5.534 0 0 1 309.372 433.846 Q 309.981 433.933 310.7 434.148 L 310.255 435.525 Q 309.549 435.297 308.99 435.231 A 3.695 3.695 0 0 0 308.558 435.204 A 2.317 2.317 0 0 0 307.999 435.267 A 1.488 1.488 0 0 0 307.119 435.851 A 1.988 1.988 0 0 0 306.856 436.381 Q 306.682 436.899 306.657 437.668 A 8.112 8.112 0 0 0 306.653 437.926 L 306.653 438.661 L 309.541 438.661 Z M 301.498 443.558 L 301.498 444.645 L 293.683 444.645 A 6.897 6.897 0 0 0 293.803 445.799 Q 293.927 446.428 294.176 446.925 A 3.226 3.226 0 0 0 294.692 447.678 A 3.122 3.122 0 0 0 296.331 448.601 A 4.731 4.731 0 0 0 297.388 448.713 A 9.076 9.076 0 0 0 300.787 448.04 A 10.399 10.399 0 0 0 301.011 447.947 L 301.011 449.479 Q 300.1 449.872 299.288 450.043 A 7.214 7.214 0 0 1 298.572 450.154 Q 298.22 450.191 297.821 450.205 A 14 14 0 0 1 297.326 450.214 A 6.677 6.677 0 0 1 295.655 450.016 A 4.728 4.728 0 0 1 293.356 448.682 Q 291.902 447.15 291.902 444.427 A 9.023 9.023 0 0 1 292.069 442.638 Q 292.289 441.55 292.8 440.705 A 5.088 5.088 0 0 1 293.253 440.069 A 4.403 4.403 0 0 1 296.462 438.469 A 6.074 6.074 0 0 1 296.881 438.454 Q 299.014 438.454 300.256 439.857 A 4.805 4.805 0 0 1 301.344 442.053 A 6.994 6.994 0 0 1 301.498 443.558 Z M 316.829 448.589 L 316.829 449.903 Q 316.549 450.038 316.006 450.126 Q 315.462 450.214 315.027 450.214 A 4.488 4.488 0 0 1 313.705 450.036 Q 312.251 449.587 311.871 448.008 A 5.401 5.401 0 0 1 311.736 446.746 L 311.736 439.997 L 310.11 439.997 L 310.11 439.169 L 311.736 438.454 L 312.46 436.032 L 313.454 436.032 L 313.454 438.661 L 316.746 438.661 L 316.746 439.997 L 313.454 439.997 L 313.454 446.674 A 3.46 3.46 0 0 0 313.504 447.281 Q 313.61 447.874 313.941 448.247 A 1.596 1.596 0 0 0 314.922 448.769 A 2.297 2.297 0 0 0 315.276 448.796 Q 315.731 448.796 316.156 448.728 Q 316.561 448.664 316.806 448.595 A 2.58 2.58 0 0 0 316.829 448.589 Z M 288.89 433.9 L 288.89 450.007 L 287.171 450.007 L 287.171 433.9 L 288.89 433.9 Z M 293.724 443.247 L 299.655 443.247 Q 299.655 441.622 298.931 440.758 A 2.354 2.354 0 0 0 297.513 439.951 A 3.531 3.531 0 0 0 296.86 439.893 A 3.387 3.387 0 0 0 295.882 440.028 A 2.617 2.617 0 0 0 294.681 440.783 Q 293.946 441.589 293.758 442.954 A 6.492 6.492 0 0 0 293.724 443.247 Z" id="left_labelLayer" stroke="#777777" fill="#777777" style="stroke:#777777;fill:#777777" vector-effect="non-scaling-stroke"/><path d="M 431 252 L 431 273 L 428 273 L 428 291 L 431 291 L 431 309 L 428 309 L 428 327 L 431 327 L 431 345 L 428 345 L 428 363 L 431 363 L 431 381 L 428 381 L 428 399 L 431 399 L 431 417 L 428 417 L 428 435 L 431 435 L 431 453 L 428 453 L 428 471 L 431 471 L 431 489 L 431 492 L 453 492 L 453 495 L 471 495 L 471 492 L 489 492 L 489 495 L 507 495 L 507 492 L 525 492 L 525 495 L 543 495 L 543 492 L 561 492 L 561 495 L 579 495 L 579 492 L 597 492 L 601 492 L 601 471 L 604 471 L 604 453 L 601 453 L 601 435 L 604 435 L 604 417 L 601 417 L 601 399 L 604 399 L 604 381 L 601 381 L 601 363 L 604 363 L 604 345 L 601 345 L 601 327 L 604 327 L 604 309 L 601 309 L 601 291 L 604 291 L 604 273 L 601 273 L 601 255 L 601 252 L 579 252 L 579 249 L 561 249 L 561 252 L 543 252 L 543 249 L 525 249 L 525 252 L 507 252 L 507 249 L 489 249 L 489 252 L 471 252 L 471 249 L 453 249 L 453 252 L 435 252 L 431 252 Z" id="top_outsideCutPath" stroke="#FF0000" stroke-width="0.1" style="stroke:#FF0000;stroke-width:0.1" vector-effect="non-scaling-stroke"/><path d="M 528.65 376.95 L 528.444 376.95 A 27.001 27.001 0 0 1 528.621 378.945 A 22.626 22.626 0 0 1 528.65 380.078 L 528.65 387.83 L 525.797 387.83 L 525.797 360.536 L 528.117 360.536 L 528.512 363.114 L 528.65 363.114 A 7.68 7.68 0 0 1 529.76 361.853 A 5.939 5.939 0 0 1 531.211 360.88 A 7.145 7.145 0 0 1 533.259 360.281 A 9.248 9.248 0 0 1 534.562 360.192 Q 538.309 360.192 540.346 362.753 A 8.567 8.567 0 0 1 541.808 365.607 Q 542.383 367.481 542.383 369.938 A 16.729 16.729 0 0 1 542.161 372.752 Q 541.705 375.419 540.312 377.148 A 6.754 6.754 0 0 1 535.511 379.672 A 9.677 9.677 0 0 1 534.562 379.717 A 8.654 8.654 0 0 1 532.388 379.452 A 7.53 7.53 0 0 1 531.202 379.038 A 6.319 6.319 0 0 1 528.65 376.95 Z M 500.772 377.019 L 500.772 379.202 Q 500.353 379.403 499.576 379.542 A 10.671 10.671 0 0 1 499.405 379.571 Q 498.503 379.717 497.781 379.717 A 7.452 7.452 0 0 1 495.585 379.422 Q 493.171 378.677 492.539 376.054 A 8.968 8.968 0 0 1 492.315 373.959 L 492.315 362.753 L 489.617 362.753 L 489.617 361.378 L 492.315 360.192 L 493.519 356.17 L 495.169 356.17 L 495.169 360.536 L 500.634 360.536 L 500.634 362.753 L 495.169 362.753 L 495.169 373.839 Q 495.169 375.035 495.567 375.84 A 2.767 2.767 0 0 0 495.976 376.452 Q 496.784 377.363 498.194 377.363 A 9.37 9.37 0 0 0 499.566 377.264 A 8.637 8.637 0 0 0 499.655 377.251 A 15.434 15.434 0 0 0 500.066 377.18 Q 500.46 377.107 500.733 377.03 A 4.281 4.281 0 0 0 500.772 377.019 Z M 520.533 372.804 A 14.738 14.738 0 0 0 520.795 369.938 A 16.745 16.745 0 0 0 520.789 369.485 Q 520.676 365.317 518.466 362.822 Q 516.137 360.192 512.184 360.192 A 11.081 11.081 0 0 0 510.194 360.363 A 7.547 7.547 0 0 0 505.79 362.762 Q 504.261 364.468 503.747 367.073 A 14.814 14.814 0 0 0 503.487 369.938 A 14.273 14.273 0 0 0 503.667 372.249 A 10.555 10.555 0 0 0 504.553 375.128 A 9.378 9.378 0 0 0 504.761 375.535 A 7.724 7.724 0 0 0 507.578 378.531 A 7.944 7.944 0 0 0 509.402 379.342 A 9.162 9.162 0 0 0 512.064 379.717 A 11.079 11.079 0 0 0 513.999 379.556 A 7.606 7.606 0 0 0 518.475 377.13 Q 520.016 375.413 520.533 372.804 Z M 506.444 369.937 A 14.448 14.448 0 0 0 506.581 372.001 Q 506.733 373.049 507.052 373.898 A 5.986 5.986 0 0 0 507.887 375.438 A 4.676 4.676 0 0 0 510.933 377.231 A 7.086 7.086 0 0 0 512.133 377.328 A 6.627 6.627 0 0 0 513.881 377.111 A 4.612 4.612 0 0 0 516.387 375.446 A 6.125 6.125 0 0 0 517.34 373.588 Q 517.621 372.73 517.743 371.682 A 15.029 15.029 0 0 0 517.839 369.937 A 14.236 14.236 0 0 0 517.704 367.909 Q 517.555 366.876 517.241 366.04 A 5.874 5.874 0 0 0 516.387 364.48 A 4.693 4.693 0 0 0 513.469 362.74 A 7.196 7.196 0 0 0 512.098 362.616 A 6.79 6.79 0 0 0 510.408 362.814 A 4.544 4.544 0 0 0 507.87 364.455 A 5.899 5.899 0 0 0 506.953 366.227 Q 506.682 367.041 506.556 368.038 A 15.077 15.077 0 0 0 506.444 369.937 Z M 528.65 369.302 L 528.65 369.938 A 18.865 18.865 0 0 0 528.743 371.887 Q 529.001 374.362 529.973 375.618 Q 531.16 377.151 533.631 377.31 A 9.174 9.174 0 0 0 534.219 377.328 Q 536.659 377.328 538.043 375.352 Q 539.135 373.792 539.365 371.301 A 15.2 15.2 0 0 0 539.426 369.903 Q 539.426 367.591 538.831 365.986 A 6.049 6.049 0 0 0 538.043 364.498 A 4.438 4.438 0 0 0 534.797 362.649 A 6.139 6.139 0 0 0 534.15 362.616 A 8.221 8.221 0 0 0 532.614 362.749 Q 531.759 362.912 531.102 363.274 A 3.77 3.77 0 0 0 529.973 364.214 A 4.888 4.888 0 0 0 529.209 365.607 Q 528.725 366.921 528.659 368.864 A 18.158 18.158 0 0 0 528.65 369.302 Z" id="top_labelLayer" stroke="#777777" fill="#777777" style="stroke:#777777;fill:#777777" vector-effect="non-scaling-stroke"/><path d="M 0 280 L 0 306 L 3 306 L 3 324 L 0 324 L 0 342 L 3 342 L 3 360 L 0 360 L 0 378 L 0 386 L 25 386 L 25 383 L 43 383 L 43 386 L 61 386 L 61 383 L 79 383 L 79 386 L 97 386 L 97 383 L 115 383 L 115 386 L 133 386 L 133 383 L 151 383 L 151 386 L 169 386 L 176 386 L 176 360 L 173 360 L 173 342 L 176 342 L 176 324 L 173 324 L 173 306 L 176 306 L 176 288 L 176 280 L 151 280 L 151 283 L 133 283 L 133 280 L 115 280 L 115 283 L 97 283 L 97 280 L 79 280 L 79 283 L 61 283 L 61 280 L 43 280 L 43 283 L 25 283 L 25 280 L 7 280 L 0 280 Z" id="back_outsideCutPath" stroke="#FF0000" stroke-width="0.1" style="stroke:#FF0000;stroke-width:0.1" vector-effect="non-scaling-stroke"/><path d="M 102.513 335.143 L 102.596 335.143 Q 102.936 334.659 103.55 333.945 A 36.922 36.922 0 0 1 103.952 333.486 L 107.616 329.605 L 109.655 329.605 L 105.059 334.439 L 109.976 340.95 L 107.896 340.95 L 103.89 335.588 L 102.596 336.706 L 102.596 340.95 L 100.898 340.95 L 100.898 324.843 L 102.596 324.843 L 102.596 333.383 Q 102.596 333.952 102.513 335.143 Z M 67.742 339.49 L 67.618 339.49 L 67.255 340.95 L 66.024 340.95 L 66.024 324.843 L 67.742 324.843 L 67.742 328.756 Q 67.742 330.028 67.664 331.048 A 21.449 21.449 0 0 1 67.659 331.116 L 67.742 331.116 A 3.907 3.907 0 0 1 70.594 329.46 A 5.869 5.869 0 0 1 71.303 329.418 A 5.252 5.252 0 0 1 72.781 329.615 A 3.932 3.932 0 0 1 74.776 330.945 A 5.063 5.063 0 0 1 75.664 332.655 Q 76.013 333.782 76.013 335.267 A 10.075 10.075 0 0 1 75.879 336.962 Q 75.725 337.865 75.392 338.59 A 4.83 4.83 0 0 1 74.766 339.609 A 4.068 4.068 0 0 1 71.874 341.13 A 5.828 5.828 0 0 1 71.303 341.157 A 5.212 5.212 0 0 1 69.993 340.997 A 4.535 4.535 0 0 1 69.279 340.748 Q 68.363 340.339 67.742 339.49 Z M 87.265 340.95 L 85.992 340.95 L 85.65 339.335 L 85.567 339.335 A 7.123 7.123 0 0 1 84.991 339.98 Q 84.681 340.285 84.371 340.497 A 3.166 3.166 0 0 1 83.875 340.779 A 3.963 3.963 0 0 1 83.056 341.037 Q 82.659 341.12 82.199 341.145 A 7.733 7.733 0 0 1 81.768 341.157 Q 80.419 341.157 79.536 340.6 A 2.959 2.959 0 0 1 79.124 340.287 A 2.824 2.824 0 0 1 78.272 338.798 A 4.324 4.324 0 0 1 78.166 337.813 A 2.973 2.973 0 0 1 79.857 335.007 Q 81.117 334.337 83.313 334.225 A 16.786 16.786 0 0 1 83.663 334.211 L 85.588 334.149 L 85.588 333.445 Q 85.588 332.629 85.373 332.074 A 1.918 1.918 0 0 0 85.014 331.473 A 1.744 1.744 0 0 0 84.299 331.007 Q 84.013 330.903 83.659 330.862 A 4.246 4.246 0 0 0 83.176 330.836 A 5.595 5.595 0 0 0 81.889 330.997 Q 80.989 331.21 79.967 331.706 L 79.439 330.391 A 7.923 7.923 0 0 1 80.968 329.763 A 9.018 9.018 0 0 1 81.277 329.677 A 7.958 7.958 0 0 1 83.28 329.418 A 7.257 7.257 0 0 1 84.385 329.497 Q 84.953 329.584 85.407 329.771 A 2.925 2.925 0 0 1 86.287 330.319 Q 87.054 331.025 87.219 332.4 A 6.761 6.761 0 0 1 87.265 333.207 L 87.265 340.95 Z M 98.372 329.988 L 97.844 331.447 A 7.644 7.644 0 0 0 97.015 331.171 A 9.13 9.13 0 0 0 96.602 331.069 Q 96.027 330.941 95.565 330.922 A 3.809 3.809 0 0 0 95.412 330.919 Q 91.954 330.919 91.954 335.329 Q 91.954 337.42 92.798 338.538 A 2.729 2.729 0 0 0 94.566 339.595 A 4.157 4.157 0 0 0 95.298 339.656 A 7.193 7.193 0 0 0 97.282 339.367 A 8.881 8.881 0 0 0 98.207 339.045 L 98.207 340.567 A 4.888 4.888 0 0 1 97.011 340.99 Q 96.258 341.157 95.339 341.157 A 6.422 6.422 0 0 1 93.777 340.978 A 4.355 4.355 0 0 1 91.525 339.64 Q 90.174 338.124 90.174 335.35 A 9.481 9.481 0 0 1 90.321 333.626 Q 90.499 332.664 90.893 331.906 A 4.737 4.737 0 0 1 91.545 330.95 A 4.449 4.449 0 0 1 93.982 329.549 A 6.745 6.745 0 0 1 95.453 329.398 Q 96.271 329.398 97.089 329.574 Q 97.897 329.748 98.362 329.982 A 2.565 2.565 0 0 1 98.372 329.988 Z M 71.054 330.857 A 4.829 4.829 0 0 0 70.119 330.941 Q 69.587 331.047 69.182 331.284 A 2.285 2.285 0 0 0 68.518 331.866 Q 67.742 332.876 67.742 335.267 Q 67.742 337.298 68.317 338.347 A 2.592 2.592 0 0 0 68.539 338.688 Q 69.254 339.611 70.742 339.707 A 5.525 5.525 0 0 0 71.096 339.718 Q 72.68 339.718 73.456 338.564 A 3.945 3.945 0 0 0 73.944 337.508 Q 74.097 337.007 74.169 336.4 A 9.846 9.846 0 0 0 74.232 335.246 Q 74.232 333.146 73.535 332.06 A 2.851 2.851 0 0 0 73.456 331.944 A 2.506 2.506 0 0 0 71.861 330.934 A 3.974 3.974 0 0 0 71.054 330.857 Z M 85.547 336.395 L 85.547 335.37 L 83.828 335.443 A 12.617 12.617 0 0 0 82.82 335.516 Q 81.826 335.632 81.203 335.907 A 2.639 2.639 0 0 0 80.873 336.079 Q 79.967 336.644 79.967 337.834 A 2.456 2.456 0 0 0 80.028 338.398 Q 80.152 338.925 80.531 339.252 A 1.871 1.871 0 0 0 81.232 339.624 Q 81.51 339.707 81.842 339.73 A 3.865 3.865 0 0 0 82.11 339.739 A 4.731 4.731 0 0 0 83.132 339.635 Q 84.029 339.436 84.631 338.859 Q 85.542 337.984 85.547 336.413 A 5.465 5.465 0 0 0 85.547 336.395 Z" id="back_labelLayer" stroke="#777777" fill="#777777" style="stroke:#777777;fill:#777777" vector-effect="non-scaling-stroke"/><path d="M 182 280 L 182 306 L 179 306 L 179 324 L 182 324 L 182 342 L 179 342 L 179 360 L 182 360 L 182 378 L 182 386 L 203 386 L 203 383 L 221 383 L 221 386 L 239 386 L 239 383 L 257 383 L 257 386 L 275 386 L 275 383 L 293 383 L 293 386 L 311 386 L 311 383 L 329 383 L 329 386 L 347 386 L 347 383 L 365 383 L 365 386 L 383 386 L 383 383 L 401 383 L 401 386 L 419 386 L 422 386 L 422 360 L 425 360 L 425 342 L 422 342 L 422 324 L 425 324 L 425 306 L 422 306 L 422 288 L 422 280 L 401 280 L 401 283 L 383 283 L 383 280 L 365 280 L 365 283 L 347 283 L 347 280 L 329 280 L 329 283 L 311 283 L 311 280 L 293 280 L 293 283 L 275 283 L 275 280 L 257 280 L 257 283 L 239 283 L 239 280 L 221 280 L 221 283 L 203 283 L 203 280 L 185 280 L 182 280 Z" id="right_outsideCutPath" stroke="#FF0000" stroke-width="0.1" style="stroke:#FF0000;stroke-width:0.1" vector-effect="non-scaling-stroke"/><path d="M 315.183 338.507 L 313.464 338.507 L 313.464 331.168 A 4.857 4.857 0 0 0 313.409 330.406 Q 313.345 330.005 313.208 329.685 A 2.044 2.044 0 0 0 312.833 329.097 A 1.937 1.937 0 0 0 312.038 328.59 Q 311.726 328.48 311.342 328.439 A 4.555 4.555 0 0 0 310.856 328.414 Q 309.686 328.414 308.93 328.829 A 2.406 2.406 0 0 0 308.242 329.387 Q 307.419 330.36 307.419 332.576 L 307.419 338.507 L 305.701 338.507 L 305.701 322.4 L 307.419 322.4 L 307.419 327.276 Q 307.419 327.909 307.376 328.387 A 6.722 6.722 0 0 1 307.336 328.735 L 307.44 328.735 Q 307.947 327.917 308.884 327.446 A 4.411 4.411 0 0 1 310.332 327.017 A 5.577 5.577 0 0 1 311.021 326.975 Q 312.39 326.975 313.308 327.403 A 3.097 3.097 0 0 1 314.142 327.964 A 2.992 2.992 0 0 1 314.88 329.123 Q 315.058 329.604 315.131 330.202 A 7.431 7.431 0 0 1 315.183 331.106 L 315.183 338.507 Z M 299.448 327.162 L 303.372 327.162 L 303.372 328.249 L 301.27 328.497 A 2.793 2.793 0 0 1 301.512 328.857 Q 301.618 329.042 301.714 329.265 A 5.298 5.298 0 0 1 301.788 329.444 A 3.306 3.306 0 0 1 301.984 330.234 A 4.245 4.245 0 0 1 302.016 330.764 A 3.939 3.939 0 0 1 301.835 331.985 A 3.186 3.186 0 0 1 300.877 333.424 Q 299.851 334.32 298.136 334.408 A 7.463 7.463 0 0 1 297.751 334.418 A 5.523 5.523 0 0 1 297.112 334.382 A 4.664 4.664 0 0 1 296.798 334.335 Q 296.172 334.666 295.903 335.095 A 1.293 1.293 0 0 0 295.701 335.795 Q 295.701 336.261 296.084 336.483 A 1.205 1.205 0 0 0 296.351 336.593 Q 296.631 336.675 297.057 336.697 A 6.537 6.537 0 0 0 297.399 336.706 L 299.407 336.706 A 7.034 7.034 0 0 1 300.475 336.782 Q 301.034 336.868 301.485 337.051 A 3.105 3.105 0 0 1 302.238 337.482 A 2.514 2.514 0 0 1 303.172 339.084 A 3.776 3.776 0 0 1 303.227 339.739 A 3.721 3.721 0 0 1 303.014 341.026 Q 302.671 341.963 301.774 342.572 A 4.086 4.086 0 0 1 301.715 342.611 Q 300.662 343.301 298.933 343.509 A 13.62 13.62 0 0 1 297.306 343.6 A 9.628 9.628 0 0 1 296.014 343.519 Q 294.703 343.341 293.874 342.772 Q 292.668 341.944 292.668 340.432 Q 292.668 339.397 293.331 338.642 A 3 3 0 0 1 294.361 337.891 A 4.253 4.253 0 0 1 295.194 337.617 A 1.783 1.783 0 0 1 294.501 337.057 A 2.117 2.117 0 0 1 294.464 337.006 A 1.593 1.593 0 0 1 294.172 336.145 A 1.973 1.973 0 0 1 294.169 336.043 A 1.965 1.965 0 0 1 294.268 335.41 A 1.741 1.741 0 0 1 294.5 334.956 A 2.46 2.46 0 0 1 294.825 334.59 Q 294.998 334.428 295.22 334.27 A 5.398 5.398 0 0 1 295.546 334.056 Q 294.666 333.693 294.112 332.824 A 3.552 3.552 0 0 1 293.567 331.112 A 4.336 4.336 0 0 1 293.558 330.836 A 4.965 4.965 0 0 1 293.689 329.663 A 3.266 3.266 0 0 1 294.676 327.964 Q 295.642 327.092 297.303 326.973 A 7.589 7.589 0 0 1 297.844 326.955 A 6.587 6.587 0 0 1 298.715 327.01 A 5.016 5.016 0 0 1 299.448 327.162 Z M 323.93 337.089 L 323.93 338.403 Q 323.65 338.538 323.107 338.626 Q 322.563 338.714 322.129 338.714 A 4.488 4.488 0 0 1 320.806 338.536 Q 319.352 338.087 318.972 336.508 A 5.401 5.401 0 0 1 318.837 335.246 L 318.837 328.497 L 317.212 328.497 L 317.212 327.669 L 318.837 326.955 L 319.561 324.532 L 320.555 324.532 L 320.555 327.162 L 323.847 327.162 L 323.847 328.497 L 320.555 328.497 L 320.555 335.174 A 3.46 3.46 0 0 0 320.605 335.781 Q 320.711 336.374 321.042 336.747 A 1.596 1.596 0 0 0 322.023 337.27 A 2.297 2.297 0 0 0 322.377 337.296 Q 322.833 337.296 323.257 337.229 Q 323.662 337.164 323.907 337.095 A 2.58 2.58 0 0 0 323.93 337.089 Z M 286.602 327.079 L 286.364 328.673 A 7.573 7.573 0 0 0 285.819 328.572 Q 285.548 328.533 285.306 328.522 A 4.03 4.03 0 0 0 285.122 328.518 A 2.977 2.977 0 0 0 282.922 329.468 A 4.073 4.073 0 0 0 282.767 329.636 A 3.924 3.924 0 0 0 281.82 331.839 A 5.216 5.216 0 0 0 281.789 332.42 L 281.789 338.507 L 280.07 338.507 L 280.07 327.162 L 281.488 327.162 L 281.685 329.263 L 281.768 329.263 Q 282.399 328.155 283.29 327.555 A 3.425 3.425 0 0 1 285.246 326.955 A 7.889 7.889 0 0 1 285.952 326.985 A 5.758 5.758 0 0 1 286.602 327.079 Z M 290.442 327.162 L 290.442 338.507 L 288.724 338.507 L 288.724 327.162 L 290.442 327.162 Z M 298.858 338.248 L 296.798 338.248 A 3.95 3.95 0 0 0 296.086 338.308 Q 295.415 338.432 294.976 338.807 A 1.811 1.811 0 0 0 294.382 339.834 A 2.75 2.75 0 0 0 294.324 340.412 A 1.726 1.726 0 0 0 294.438 341.052 Q 294.601 341.465 294.999 341.743 A 2.016 2.016 0 0 0 295.101 341.809 A 2.752 2.752 0 0 0 295.778 342.099 Q 296.421 342.285 297.326 342.285 A 11.552 11.552 0 0 0 298.454 342.234 Q 299.585 342.123 300.295 341.769 A 2.854 2.854 0 0 0 300.53 341.638 Q 301.57 340.991 301.57 339.884 Q 301.57 339.313 301.352 338.959 A 1.083 1.083 0 0 0 301.001 338.605 Q 300.432 338.248 298.858 338.248 Z M 295.256 330.795 A 3.354 3.354 0 0 0 295.325 331.498 Q 295.419 331.934 295.639 332.261 A 1.838 1.838 0 0 0 295.929 332.596 A 2.221 2.221 0 0 0 296.823 333.082 Q 297.258 333.207 297.802 333.207 A 3.744 3.744 0 0 0 298.783 333.09 Q 299.904 332.785 300.206 331.685 A 3.48 3.48 0 0 0 300.318 330.764 Q 300.318 328.207 297.771 328.207 Q 296.56 328.207 295.908 328.859 A 2.062 2.062 0 0 0 295.409 329.7 Q 295.304 330.025 295.271 330.421 A 4.52 4.52 0 0 0 295.256 330.795 Z M 288.603 323.773 A 1.904 1.904 0 0 0 288.579 324.087 A 2.029 2.029 0 0 0 288.588 324.281 Q 288.63 324.717 288.869 324.952 A 0.964 0.964 0 0 0 289.218 325.174 A 1.092 1.092 0 0 0 289.594 325.236 Q 290.008 325.236 290.308 324.952 A 0.839 0.839 0 0 0 290.472 324.735 Q 290.546 324.594 290.58 324.413 A 1.778 1.778 0 0 0 290.608 324.087 A 1.966 1.966 0 0 0 290.6 323.901 Q 290.558 323.461 290.308 323.228 Q 290.008 322.949 289.594 322.949 A 1.312 1.312 0 0 0 289.507 322.951 A 0.994 0.994 0 0 0 288.869 323.223 A 0.804 0.804 0 0 0 288.691 323.475 Q 288.631 323.606 288.603 323.773 Z" id="right_labelLayer" stroke="#777777" fill="#777777" style="stroke:#777777;fill:#777777" vector-effect="non-scaling-stroke"/><path d="M 431 3 L 431 24 L 428 24 L 428 42 L 431 42 L 431 60 L 428 60 L 428 78 L 431 78 L 431 96 L 428 96 L 428 114 L 431 114 L 431 132 L 428 132 L 428 150 L 431 150 L 431 168 L 428 168 L 428 186 L 431 186 L 431 204 L 428 204 L 428 222 L 431 222 L 431 240 L 431 243 L 453 243 L 453 246 L 471 246 L 471 243 L 489 243 L 489 246 L 507 246 L 507 243 L 525 243 L 525 246 L 543 246 L 543 243 L 561 243 L 561 246 L 579 246 L 579 243 L 597 243 L 601 243 L 601 222 L 604 222 L 604 204 L 601 204 L 601 186 L 604 186 L 604 168 L 601 168 L 601 150 L 604 150 L 604 132 L 601 132 L 601 114 L 604 114 L 604 96 L 601 96 L 601 78 L 604 78 L 604 60 L 601 60 L 601 42 L 604 42 L 604 24 L 601 24 L 601 6 L 601 3 L 579 3 L 579 0 L 561 0 L 561 3 L 543 3 L 543 0 L 525 0 L 525 3 L 507 3 L 507 0 L 489 0 L 489 3 L 471 3 L 471 0 L 453 0 L 453 3 L 435 3 L 431 3 Z" id="bottom_outsideCutPath" stroke="#FF0000" stroke-width="0.1" style="stroke:#FF0000;stroke-width:0.1" vector-effect="non-scaling-stroke"/><path d="M 573.905 136.2 L 571.051 136.2 L 571.051 123.945 A 8.417 8.417 0 0 0 570.967 122.707 Q 570.872 122.075 570.674 121.566 A 3.448 3.448 0 0 0 570.089 120.568 A 3.002 3.002 0 0 0 568.693 119.665 Q 568.196 119.505 567.59 119.459 A 6.623 6.623 0 0 0 567.098 119.442 A 7.342 7.342 0 0 0 565.604 119.584 Q 564.716 119.769 564.047 120.194 A 3.778 3.778 0 0 0 563.162 120.971 A 4.715 4.715 0 0 0 562.363 122.418 Q 561.894 123.733 561.891 125.652 A 15.991 15.991 0 0 0 561.891 125.681 L 561.891 136.2 L 559.037 136.2 L 559.037 123.945 A 8.417 8.417 0 0 0 558.953 122.707 Q 558.858 122.075 558.66 121.566 A 3.448 3.448 0 0 0 558.075 120.568 A 2.993 2.993 0 0 0 556.698 119.673 Q 555.994 119.442 555.067 119.442 A 7.086 7.086 0 0 0 553.602 119.583 Q 552.016 119.919 551.14 121.049 A 4.785 4.785 0 0 0 550.43 122.396 Q 549.97 123.697 549.905 125.649 A 19.864 19.864 0 0 0 549.894 126.317 L 549.894 136.2 L 547.041 136.2 L 547.041 117.362 L 549.361 117.362 L 549.825 119.94 L 549.962 119.94 Q 550.77 118.565 552.24 117.792 A 6.774 6.774 0 0 1 554.915 117.041 A 8.181 8.181 0 0 1 555.531 117.018 Q 558.267 117.018 559.829 118.245 A 4.871 4.871 0 0 1 561.306 120.215 L 561.444 120.215 A 5.957 5.957 0 0 1 563.687 117.988 A 7.158 7.158 0 0 1 563.884 117.878 A 7.221 7.221 0 0 1 566.533 117.072 A 9.004 9.004 0 0 1 567.528 117.018 A 9.918 9.918 0 0 1 569.327 117.171 Q 571.209 117.518 572.315 118.66 A 4.913 4.913 0 0 1 573.37 120.385 Q 573.905 121.817 573.905 123.91 L 573.905 136.2 Z M 460.948 133.776 L 460.742 133.776 L 460.141 136.2 L 458.095 136.2 L 458.095 109.456 L 460.948 109.456 L 460.948 115.953 A 59.486 59.486 0 0 1 460.916 117.962 Q 460.884 118.913 460.82 119.759 A 35.616 35.616 0 0 1 460.811 119.871 L 460.948 119.871 A 6.487 6.487 0 0 1 465.683 117.121 A 9.744 9.744 0 0 1 466.861 117.053 A 8.72 8.72 0 0 1 469.315 117.38 A 6.528 6.528 0 0 1 472.627 119.588 A 8.407 8.407 0 0 1 474.101 122.427 Q 474.464 123.597 474.6 124.998 A 18.313 18.313 0 0 1 474.681 126.764 A 16.729 16.729 0 0 1 474.46 129.578 Q 474.004 132.245 472.61 133.974 A 6.754 6.754 0 0 1 467.81 136.498 A 9.677 9.677 0 0 1 466.861 136.543 A 8.654 8.654 0 0 1 464.686 136.278 A 7.53 7.53 0 0 1 463.501 135.864 A 6.319 6.319 0 0 1 460.948 133.776 Z M 509.589 133.845 L 509.589 136.028 Q 509.17 136.23 508.393 136.368 A 10.671 10.671 0 0 1 508.223 136.397 Q 507.32 136.543 506.598 136.543 A 7.452 7.452 0 0 1 504.402 136.248 Q 501.988 135.503 501.357 132.881 A 8.968 8.968 0 0 1 501.133 130.785 L 501.133 119.579 L 498.434 119.579 L 498.434 118.204 L 501.133 117.018 L 502.336 112.996 L 503.986 112.996 L 503.986 117.362 L 509.451 117.362 L 509.451 119.579 L 503.986 119.579 L 503.986 130.665 Q 503.986 131.861 504.385 132.666 A 2.767 2.767 0 0 0 504.794 133.278 Q 505.601 134.189 507.011 134.189 A 9.37 9.37 0 0 0 508.384 134.09 A 8.637 8.637 0 0 0 508.472 134.077 A 15.434 15.434 0 0 0 508.884 134.006 Q 509.277 133.933 509.551 133.856 A 4.281 4.281 0 0 0 509.589 133.845 Z M 522.016 133.845 L 522.016 136.028 Q 521.596 136.23 520.82 136.368 A 10.671 10.671 0 0 1 520.649 136.397 Q 519.747 136.543 519.025 136.543 A 7.452 7.452 0 0 1 516.829 136.248 Q 514.415 135.503 513.783 132.881 A 8.968 8.968 0 0 1 513.559 130.785 L 513.559 119.579 L 510.861 119.579 L 510.861 118.204 L 513.559 117.018 L 514.762 112.996 L 516.412 112.996 L 516.412 117.362 L 521.878 117.362 L 521.878 119.579 L 516.412 119.579 L 516.412 130.665 Q 516.412 131.861 516.811 132.666 A 2.767 2.767 0 0 0 517.22 133.278 Q 518.028 134.189 519.437 134.189 A 9.37 9.37 0 0 0 520.81 134.09 A 8.637 8.637 0 0 0 520.898 134.077 A 15.434 15.434 0 0 0 521.31 134.006 Q 521.704 133.933 521.977 133.856 A 4.281 4.281 0 0 0 522.016 133.845 Z M 495.663 129.631 A 14.738 14.738 0 0 0 495.925 126.764 A 16.745 16.745 0 0 0 495.919 126.311 Q 495.806 122.143 493.596 119.648 Q 491.267 117.018 487.314 117.018 A 11.081 11.081 0 0 0 485.324 117.189 A 7.547 7.547 0 0 0 480.92 119.588 Q 479.391 121.294 478.877 123.899 A 14.814 14.814 0 0 0 478.617 126.764 A 14.273 14.273 0 0 0 478.796 129.076 A 10.555 10.555 0 0 0 479.683 131.954 A 9.378 9.378 0 0 0 479.89 132.361 A 7.724 7.724 0 0 0 482.708 135.357 A 7.944 7.944 0 0 0 484.531 136.168 A 9.162 9.162 0 0 0 487.194 136.543 A 11.079 11.079 0 0 0 489.128 136.382 A 7.606 7.606 0 0 0 493.605 133.957 Q 495.145 132.239 495.663 129.631 Z M 541.777 129.631 A 14.738 14.738 0 0 0 542.039 126.764 A 16.745 16.745 0 0 0 542.033 126.311 Q 541.92 122.143 539.71 119.648 Q 537.381 117.018 533.428 117.018 A 11.081 11.081 0 0 0 531.438 117.189 A 7.547 7.547 0 0 0 527.034 119.588 Q 525.505 121.294 524.991 123.899 A 14.814 14.814 0 0 0 524.731 126.764 A 14.273 14.273 0 0 0 524.91 129.076 A 10.555 10.555 0 0 0 525.797 131.954 A 9.378 9.378 0 0 0 526.004 132.361 A 7.724 7.724 0 0 0 528.822 135.357 A 7.944 7.944 0 0 0 530.645 136.168 A 9.162 9.162 0 0 0 533.308 136.543 A 11.079 11.079 0 0 0 535.242 136.382 A 7.606 7.606 0 0 0 539.719 133.957 Q 541.259 132.239 541.777 129.631 Z M 481.573 126.764 A 14.448 14.448 0 0 0 481.711 128.828 Q 481.862 129.875 482.181 130.724 A 5.986 5.986 0 0 0 483.017 132.264 A 4.676 4.676 0 0 0 486.063 134.057 A 7.086 7.086 0 0 0 487.262 134.154 A 6.627 6.627 0 0 0 489.011 133.937 A 4.612 4.612 0 0 0 491.516 132.272 A 6.125 6.125 0 0 0 492.47 130.415 Q 492.751 129.556 492.873 128.508 A 15.029 15.029 0 0 0 492.969 126.764 A 14.236 14.236 0 0 0 492.834 124.735 Q 492.685 123.702 492.371 122.866 A 5.874 5.874 0 0 0 491.516 121.307 A 4.693 4.693 0 0 0 488.598 119.566 A 7.196 7.196 0 0 0 487.228 119.442 A 6.79 6.79 0 0 0 485.538 119.64 A 4.544 4.544 0 0 0 483 121.281 A 5.899 5.899 0 0 0 482.083 123.053 Q 481.812 123.867 481.685 124.864 A 15.077 15.077 0 0 0 481.573 126.764 Z M 527.687 126.764 A 14.448 14.448 0 0 0 527.825 128.828 Q 527.977 129.875 528.295 130.724 A 5.986 5.986 0 0 0 529.131 132.264 A 4.676 4.676 0 0 0 532.177 134.057 A 7.086 7.086 0 0 0 533.376 134.154 A 6.627 6.627 0 0 0 535.125 133.937 A 4.612 4.612 0 0 0 537.63 132.272 A 6.125 6.125 0 0 0 538.584 130.415 Q 538.865 129.556 538.987 128.508 A 15.029 15.029 0 0 0 539.083 126.764 A 14.236 14.236 0 0 0 538.948 124.735 Q 538.799 123.702 538.485 122.866 A 5.874 5.874 0 0 0 537.63 121.307 A 4.693 4.693 0 0 0 534.712 119.566 A 7.196 7.196 0 0 0 533.342 119.442 A 6.79 6.79 0 0 0 531.652 119.64 A 4.544 4.544 0 0 0 529.114 121.281 A 5.899 5.899 0 0 0 528.197 123.053 Q 527.926 123.867 527.799 124.864 A 15.077 15.077 0 0 0 527.687 126.764 Z M 466.448 119.442 A 8.018 8.018 0 0 0 464.896 119.582 Q 464.011 119.757 463.339 120.15 A 3.794 3.794 0 0 0 462.237 121.118 Q 461.105 122.59 460.967 125.834 A 21.982 21.982 0 0 0 460.948 126.764 A 18.865 18.865 0 0 0 461.042 128.713 Q 461.3 131.188 462.272 132.444 Q 463.458 133.977 465.929 134.136 A 9.174 9.174 0 0 0 466.517 134.154 A 5.688 5.688 0 0 0 468.133 133.938 A 4.103 4.103 0 0 0 470.436 132.238 Q 471.725 130.321 471.725 126.729 A 16.857 16.857 0 0 0 471.623 124.808 Q 471.362 122.544 470.436 121.246 A 4.161 4.161 0 0 0 467.787 119.57 A 6.599 6.599 0 0 0 466.448 119.442 Z" id="bottom_labelLayer" stroke="#777777" fill="#777777" style="stroke:#777777;fill:#777777" vector-effect="non-scaling-stroke"/></g></svg>