<?xml version="1.0" encoding="UTF-8" standalone="no"?>
<!-- Created with Inkscape (http://www.inkscape.org/) -->

<svg
   version="1.1"
   id="svg630"
   xml:space="preserve"
   width="60cm"
   height="50cm"
   viewBox="0 0 2267.7166 1889.7638"
   sodipodi:docname="Main Assembly.svg"
   inkscape:version="1.1 (c68e22c387, 2021-05-23)"
   xmlns:inkscape="http://www.inkscape.org/namespaces/inkscape"
   xmlns:sodipodi="http://sodipodi.sourceforge.net/DTD/sodipodi-0.dtd"
   xmlns="http://www.w3.org/2000/svg"
   xmlns:svg="http://www.w3.org/2000/svg"><defs
     id="defs634"><clipPath
       clipPathUnits="userSpaceOnUse"
       id="clipPath672"><path
         d="M 0,1403.15 H 1712.126 V 0 H 0 Z"
         id="path670" /></clipPath><clipPath
       clipPathUnits="userSpaceOnUse"
       id="clipPath734"><path
         d="M 0,1403.15 H 1712.126 V 0 H 0 Z"
         id="path732" /></clipPath><clipPath
       clipPathUnits="userSpaceOnUse"
       id="clipPath792"><path
         d="M 0,1403.15 H 1712.126 V 0 H 0 Z"
         id="path790" /></clipPath></defs><sodipodi:namedview
     id="namedview632"
     pagecolor="#ffffff"
     bordercolor="#999999"
     borderopacity="1"
     inkscape:pageshadow="0"
     inkscape:pageopacity="0"
     inkscape:pagecheckerboard="0"
     showgrid="true"
     inkscape:document-units="cm"
     units="cm"
     inkscape:zoom="0.4324199"
     inkscape:cx="877.61917"
     inkscape:cy="1125.0638"
     inkscape:window-width="1920"
     inkscape:window-height="1017"
     inkscape:window-x="-8"
     inkscape:window-y="-8"
     inkscape:window-maximized="1"
     inkscape:current-layer="g636"><inkscape:grid
       type="xygrid"
       id="grid898"
       units="cm"
       spacingx="37.795276"
       spacingy="37.795276"
       enabled="true"
       empspacing="10"
       visible="true" /></sodipodi:namedview><g
     id="g636"
     inkscape:groupmode="layer"
     inkscape:label="Main Assembly"
     transform="matrix(1.3333333,0,0,-1.3333333,0,1870.8667)"
     style="display:inline"><g
       id="g690"
       transform="translate(737.00792,649.13375)" /><g
       id="g736"
       transform="translate(1094.147,1056.7128)"><path
         d="m 0,0 c -1.476,0.011 -2.949,-0.122 -4.399,-0.397 -1.673,-0.331 -3.144,-0.867 -4.414,-1.61 -1.209,-0.703 -2.271,-1.635 -3.124,-2.744 -2.139,-2.782 -3.339,-7.238 -3.6,-13.368 -0.036,-0.879 -0.054,-1.757 -0.054,-2.636 -0.006,-1.845 0.083,-3.689 0.267,-5.525 0.487,-4.677 1.649,-8.202 3.486,-10.576 2.241,-2.897 5.697,-4.496 10.366,-4.796 0.556,-0.035 1.112,-0.052 1.667,-0.052 1.549,-0.016 3.092,0.19 4.581,0.613 2.684,0.77 5.001,2.481 6.529,4.819 2.435,3.623 3.653,8.828 3.653,15.616 0.008,1.819 -0.089,3.637 -0.289,5.445 -0.493,4.279 -1.614,7.644 -3.364,10.097 C 9.517,-2.612 6.822,-0.907 3.796,-0.363 2.546,-0.113 1.274,0.009 0,0 m 173.591,-20.755 c -0.01,-1.957 0.121,-3.912 0.391,-5.851 0.288,-1.978 0.732,-3.77 1.332,-5.374 0.572,-1.564 1.371,-3.035 2.37,-4.366 2.102,-2.758 5.202,-4.583 8.634,-5.082 1.123,-0.188 2.26,-0.28 3.399,-0.276 1.673,-0.016 3.34,0.191 4.958,0.616 2.828,0.735 5.328,2.397 7.1,4.719 1.197,1.587 2.112,3.368 2.704,5.265 0.532,1.623 0.913,3.425 1.143,5.405 0.187,1.641 0.277,3.292 0.273,4.944 0.009,1.923 -0.119,3.845 -0.383,5.751 -0.282,1.952 -0.719,3.718 -1.313,5.298 -0.579,1.588 -1.396,3.078 -2.424,4.419 -2.044,2.621 -4.994,4.381 -8.271,4.935 -1.28,0.241 -2.58,0.359 -3.883,0.352 -1.614,0.015 -3.224,-0.174 -4.791,-0.562 -2.858,-0.684 -5.397,-2.325 -7.194,-4.651 -1.146,-1.515 -2.025,-3.213 -2.6,-5.023 -0.512,-1.538 -0.888,-3.249 -1.128,-5.134 -0.219,-1.786 -0.325,-3.585 -0.317,-5.385 m -130.717,0 c -0.01,-1.957 0.121,-3.912 0.392,-5.851 0.285,-1.978 0.729,-3.77 1.332,-5.374 0.571,-1.564 1.37,-3.035 2.369,-4.366 2.102,-2.758 5.202,-4.583 8.635,-5.082 1.123,-0.188 2.259,-0.28 3.398,-0.276 1.673,-0.016 3.34,0.191 4.958,0.616 2.828,0.735 5.328,2.397 7.101,4.719 1.196,1.587 2.111,3.368 2.704,5.265 0.531,1.623 0.912,3.425 1.142,5.405 0.187,1.641 0.278,3.292 0.273,4.944 0.01,1.923 -0.118,3.845 -0.383,5.751 -0.281,1.952 -0.719,3.718 -1.313,5.298 -0.579,1.588 -1.396,3.078 -2.423,4.419 -2.044,2.621 -4.995,4.381 -8.272,4.935 -1.28,0.241 -2.58,0.359 -3.883,0.352 -1.614,0.015 -3.223,-0.174 -4.791,-0.562 -2.858,-0.684 -5.397,-2.325 -7.194,-4.651 -1.146,-1.515 -2.024,-3.213 -2.6,-5.023 -0.511,-1.538 -0.887,-3.249 -1.128,-5.134 -0.218,-1.786 -0.325,-3.585 -0.317,-5.385 m 170.657,-8.127 c 0.512,2.678 0.761,5.4 0.742,8.127 0,0.428 -0.004,0.856 -0.016,1.284 -0.214,7.876 -2.408,14.172 -6.585,18.887 -4.401,4.97 -10.337,7.455 -17.808,7.455 -1.89,0.009 -3.778,-0.154 -5.64,-0.485 -4.815,-0.777 -9.22,-3.177 -12.484,-6.8 -2.889,-3.224 -4.82,-7.297 -5.791,-12.22 -0.509,-2.677 -0.756,-5.397 -0.737,-8.121 -0.009,-2.195 0.16,-4.387 0.507,-6.554 0.444,-2.826 1.291,-5.573 2.514,-8.158 0.187,-0.389 0.382,-0.774 0.587,-1.154 1.846,-3.501 4.607,-6.436 7.989,-8.492 1.619,-0.981 3.354,-1.753 5.167,-2.3 2.45,-0.723 4.994,-1.081 7.548,-1.063 1.837,-0.008 3.672,0.145 5.483,0.457 4.894,0.766 9.376,3.193 12.69,6.874 2.91,3.247 4.855,7.334 5.834,12.263 m -130.717,0 c 0.512,2.678 0.761,5.4 0.743,8.127 0,0.428 -0.005,0.856 -0.017,1.284 -0.214,7.876 -2.409,14.172 -6.585,18.887 -4.401,4.97 -10.337,7.455 -17.808,7.455 -1.89,0.009 -3.778,-0.154 -5.64,-0.485 -4.815,-0.777 -9.22,-3.177 -12.484,-6.8 -2.889,-3.224 -4.82,-7.297 -5.792,-12.22 -0.507,-2.677 -0.754,-5.397 -0.736,-8.121 -0.009,-2.195 0.16,-4.387 0.507,-6.554 0.444,-2.826 1.291,-5.573 2.515,-8.158 0.186,-0.389 0.381,-0.774 0.587,-1.154 1.845,-3.501 4.606,-6.436 7.988,-8.492 1.618,-0.981 3.354,-1.753 5.167,-2.3 2.45,-0.723 4.994,-1.081 7.549,-1.063 1.837,-0.008 3.671,0.145 5.482,0.457 4.895,0.766 9.376,3.193 12.69,6.874 2.911,3.247 4.855,7.334 5.834,12.263 m 74.702,-11.946 v -6.188 c -0.794,-0.381 -1.924,-0.702 -3.391,-0.963 -0.161,-0.029 -0.322,-0.057 -0.484,-0.083 -1.704,-0.275 -3.24,-0.414 -4.604,-0.414 -2.104,-0.032 -4.203,0.249 -6.225,0.837 -4.562,1.408 -7.44,4.589 -8.634,9.544 -0.445,1.949 -0.657,3.943 -0.635,5.942 v 31.765 h -7.647 v 3.897 l 7.647,3.362 3.41,11.401 h 4.677 V 5.896 h 15.494 V -0.388 H 141.63 v -31.425 c 0,-2.26 0.377,-4.151 1.131,-5.672 0.307,-0.628 0.698,-1.211 1.16,-1.735 1.526,-1.722 3.621,-2.583 6.284,-2.583 1.303,-0.002 2.604,0.092 3.892,0.281 0.084,0.012 0.167,0.024 0.25,0.037 0.389,0.062 0.779,0.129 1.168,0.201 0.744,0.138 1.374,0.28 1.89,0.425 0.036,0.01 0.074,0.021 0.111,0.031 m -35.227,0 v -6.188 c -0.791,-0.381 -1.922,-0.702 -3.39,-0.963 -0.16,-0.029 -0.321,-0.056 -0.482,-0.083 -1.706,-0.275 -3.241,-0.414 -4.606,-0.414 -2.105,-0.032 -4.204,0.249 -6.225,0.837 -4.562,1.408 -7.439,4.589 -8.631,9.544 -0.445,1.949 -0.658,3.943 -0.636,5.942 v 31.765 h -7.65 v 3.897 l 7.65,3.362 3.41,11.401 h 4.678 V 5.896 h 15.491 v -6.284 h -15.491 v -31.425 c 0,-2.26 0.377,-4.151 1.131,-5.672 0.308,-0.628 0.697,-1.211 1.159,-1.735 1.526,-1.722 3.62,-2.583 6.284,-2.583 1.303,-0.002 2.604,0.092 3.893,0.281 0.083,0.012 0.166,0.024 0.249,0.037 0.391,0.062 0.779,0.129 1.168,0.201 0.742,0.138 1.373,0.28 1.891,0.425 0.036,0.01 0.072,0.021 0.107,0.031 m -137.88,0.196 h -0.584 l -1.703,-6.871 h -5.8 v 75.81 h 8.087 V 9.89 c 0.002,-1.899 -0.028,-3.797 -0.091,-5.695 -0.06,-1.797 -0.15,-3.495 -0.271,-5.093 -0.009,-0.106 -0.018,-0.212 -0.026,-0.318 h 0.388 c 3.105,4.452 8.018,7.305 13.422,7.795 1.108,0.132 2.224,0.196 3.34,0.193 2.35,0.023 4.693,-0.289 6.956,-0.927 3.705,-1.058 6.986,-3.246 9.389,-6.259 1.894,-2.39 3.313,-5.122 4.177,-8.047 0.687,-2.211 1.158,-4.641 1.415,-7.289 0.158,-1.664 0.234,-3.334 0.23,-5.005 0.016,-2.672 -0.193,-5.341 -0.627,-7.977 -0.861,-5.04 -2.609,-9.194 -5.244,-12.461 -3.337,-4.181 -8.271,-6.775 -13.607,-7.155 -0.893,-0.087 -1.791,-0.129 -2.689,-0.128 -2.079,-0.011 -4.15,0.241 -6.166,0.752 -1.15,0.297 -2.274,0.689 -3.359,1.173 -2.893,1.298 -5.391,3.341 -7.237,5.919 m 320.194,-6.871 h -8.09 v 34.738 c 0.007,1.175 -0.074,2.348 -0.239,3.51 -0.179,1.194 -0.457,2.272 -0.831,3.234 -0.388,1.03 -0.95,1.986 -1.658,2.829 -1.052,1.209 -2.423,2.096 -3.957,2.56 -0.939,0.302 -1.981,0.497 -3.126,0.584 -0.465,0.033 -0.93,0.049 -1.394,0.048 -1.422,0.011 -2.842,-0.124 -4.236,-0.403 -1.677,-0.349 -3.149,-0.926 -4.414,-1.729 -0.946,-0.598 -1.792,-1.342 -2.509,-2.202 -0.99,-1.224 -1.756,-2.612 -2.264,-4.102 -0.886,-2.485 -1.332,-5.541 -1.338,-9.167 v -0.083 -29.817 h -8.09 v 34.738 c 0.007,1.175 -0.072,2.348 -0.238,3.51 -0.18,1.194 -0.456,2.272 -0.83,3.234 -0.39,1.03 -0.951,1.986 -1.659,2.829 -1.039,1.193 -2.391,2.072 -3.903,2.537 -1.331,0.437 -2.872,0.655 -4.624,0.655 -1.393,0.011 -2.786,-0.123 -4.152,-0.4 -2.997,-0.635 -5.323,-2.02 -6.979,-4.155 -0.871,-1.157 -1.55,-2.446 -2.012,-3.819 -0.871,-2.458 -1.367,-5.532 -1.489,-9.221 -0.021,-0.631 -0.031,-1.262 -0.031,-1.893 v -28.015 h -8.087 V 5.896 h 6.576 l 1.316,-7.308 h 0.387 c 1.528,2.599 3.68,4.628 6.457,6.089 2.354,1.226 4.936,1.951 7.583,2.129 0.582,0.044 1.165,0.065 1.747,0.065 5.17,0 9.231,-1.159 12.183,-3.478 1.851,-1.472 3.292,-3.395 4.187,-5.584 h 0.391 c 1.512,2.638 3.709,4.819 6.358,6.313 0.184,0.107 0.371,0.211 0.558,0.311 2.332,1.239 4.882,2.015 7.51,2.285 0.937,0.103 1.878,0.154 2.82,0.153 1.709,0.011 3.416,-0.134 5.1,-0.434 3.556,-0.655 6.379,-2.062 8.47,-4.22 1.325,-1.405 2.342,-3.071 2.99,-4.89 1.011,-2.706 1.517,-6.037 1.517,-9.992 z"
         style="fill:#777777;fill-opacity:1;fill-rule:evenodd;stroke:none"
         id="path738" /></g><g
       id="g740"
       transform="translate(1098.8154,1065.9027)"><path
         d="m -4.6684577,-9.1899154 c -1.476,0.011 -2.949,-0.122 -4.399,-0.397 -1.6730003,-0.331 -3.1440003,-0.8669996 -4.4140003,-1.6099996 -1.209,-0.703 -2.271,-1.635 -3.124,-2.744 -2.139,-2.782 -3.339,-7.238 -3.6,-13.368 -0.036,-0.879 -0.054,-1.757 -0.054,-2.636 -0.006,-1.845 0.083,-3.689 0.267,-5.525 0.487,-4.677 1.649,-8.202 3.486,-10.576 2.241,-2.897 5.697,-4.496 10.3660003,-4.796 0.556,-0.035 1.112,-0.052 1.667,-0.052 1.549,-0.016 3.092,0.19 4.58099999,0.613 2.68400001,0.77 5.00100001,2.481 6.52900001,4.819 2.435,3.623 3.6529997,8.828 3.6529997,15.616 0.008,1.819 -0.089,3.637 -0.289,5.445 -0.4929997,4.279 -1.6139997,7.644 -3.3639997,10.097 -1.788,2.502 -4.483,4.207 -7.50900001,4.7509996 -1.24999999,0.25 -2.52199999,0.372 -3.79599999,0.363 z M 168.92254,-29.944915 c -0.01,-1.957 0.121,-3.912 0.391,-5.851 0.288,-1.978 0.732,-3.77 1.332,-5.374 0.572,-1.564 1.371,-3.035 2.37,-4.366 2.102,-2.758 5.202,-4.583 8.634,-5.082 1.123,-0.188 2.26,-0.28 3.399,-0.276 1.673,-0.016 3.34,0.191 4.958,0.616 2.828,0.735 5.328,2.397 7.1,4.719 1.197,1.587 2.112,3.368 2.704,5.265 0.532,1.623 0.913,3.425 1.143,5.405 0.187,1.641 0.277,3.292 0.273,4.944 0.009,1.923 -0.119,3.845 -0.383,5.751 -0.282,1.952 -0.719,3.718 -1.313,5.298 -0.579,1.588 -1.396,3.078 -2.424,4.419 -2.044,2.621 -4.994,4.381 -8.271,4.9349996 -1.28,0.241 -2.58,0.359 -3.883,0.352 -1.614,0.015 -3.224,-0.174 -4.791,-0.562 -2.858,-0.6839996 -5.397,-2.3249996 -7.194,-4.6509996 -1.146,-1.515 -2.025,-3.213 -2.6,-5.023 -0.512,-1.538 -0.888,-3.249 -1.128,-5.134 -0.219,-1.786 -0.325,-3.585 -0.317,-5.385 z m -130.716998,0 c -0.01,-1.957 0.121,-3.912 0.392,-5.851 0.285,-1.978 0.729,-3.77 1.332,-5.374 0.571,-1.564 1.37,-3.035 2.369,-4.366 2.102,-2.758 5.202,-4.583 8.635,-5.082 1.123,-0.188 2.259,-0.28 3.398,-0.276 1.673,-0.016 3.34,0.191 4.958,0.616 2.828,0.735 5.328,2.397 7.101,4.719 1.196,1.587 2.111,3.368 2.704,5.265 0.531,1.623 0.912,3.425 1.142,5.405 0.187,1.641 0.278,3.292 0.273,4.944 0.01,1.923 -0.118,3.845 -0.383,5.751 -0.281,1.952 -0.719,3.718 -1.313,5.298 -0.579,1.588 -1.396,3.078 -2.423,4.419 -2.044,2.621 -4.995,4.381 -8.272,4.9349996 -1.28,0.241 -2.58,0.359 -3.883,0.352 -1.614,0.015 -3.223,-0.174 -4.791,-0.562 -2.858,-0.6839996 -5.397,-2.3249996 -7.194,-4.6509996 -1.146,-1.515 -2.024,-3.213 -2.6,-5.023 -0.511,-1.538 -0.887,-3.249 -1.128,-5.134 -0.218,-1.786 -0.325,-3.585 -0.317,-5.385 z m 170.656998,-8.127 c 0.512,2.678 0.761,5.4 0.742,8.127 0,0.428 -0.004,0.856 -0.016,1.284 -0.214,7.876 -2.408,14.172 -6.585,18.8869996 -4.401,4.97 -10.337,7.455 -17.808,7.455 -1.89,0.009 -3.778,-0.154 -5.64,-0.485 -4.815,-0.777 -9.22,-3.177 -12.484,-6.8 -2.889,-3.2239996 -4.82,-7.2969996 -5.791,-12.2199996 -0.509,-2.677 -0.756,-5.397 -0.737,-8.121 -0.009,-2.195 0.16,-4.387 0.507,-6.554 0.444,-2.826 1.291,-5.573 2.514,-8.158 0.187,-0.389 0.382,-0.774 0.587,-1.154 1.846,-3.501 4.607,-6.436 7.989,-8.492 1.619,-0.981 3.354,-1.753 5.167,-2.3 2.45,-0.723 4.994,-1.081 7.548,-1.063 1.837,-0.008 3.672,0.145 5.483,0.457 4.894,0.766 9.376,3.193 12.69,6.874 2.91,3.247 4.855,7.334 5.834,12.263 z m -130.716998,0 c 0.512,2.678 0.761,5.4 0.743,8.127 0,0.428 -0.005,0.856 -0.017,1.284 -0.214,7.876 -2.409,14.172 -6.585,18.8869996 -4.401,4.97 -10.337,7.455 -17.808,7.455 -1.89,0.009 -3.778,-0.154 -5.64,-0.485 -4.815,-0.777 -9.22,-3.177 -12.484,-6.8 -2.889,-3.2239996 -4.82,-7.2969996 -5.792,-12.2199996 -0.507,-2.677 -0.754,-5.397 -0.736,-8.121 -0.009,-2.195 0.16,-4.387 0.507,-6.554 0.444,-2.826 1.291,-5.573 2.515,-8.158 0.186,-0.389 0.381,-0.774 0.587,-1.154 1.845,-3.501 4.606,-6.436 7.988,-8.492 1.618,-0.981 3.354,-1.753 5.167,-2.3 2.45,-0.723 4.994,-1.081 7.549,-1.063 1.837,-0.008 3.671,0.145 5.482,0.457 4.895,0.766 9.376,3.193 12.69,6.874 2.911,3.247 4.855,7.334 5.834,12.263 z m 74.701998,-11.946 v -6.188 c -0.794,-0.381 -1.924,-0.702 -3.391,-0.963 -0.161,-0.029 -0.322,-0.057 -0.484,-0.083 -1.704,-0.275 -3.24,-0.414 -4.604,-0.414 -2.104,-0.032 -4.203,0.249 -6.225,0.837 -4.562,1.408 -7.44,4.589 -8.634,9.544 -0.445,1.949 -0.657,3.943 -0.635,5.942 v 31.7649996 h -7.647 v 3.897 l 7.647,3.362 3.41,11.401 h 4.677 v -12.376 h 15.494 v -6.284 h -15.494 V -41.002915 c 0,-2.26 0.377,-4.151 1.131,-5.672 0.307,-0.628 0.698,-1.211 1.16,-1.735 1.526,-1.722 3.621,-2.583 6.284,-2.583 1.303,-0.002 2.604,0.092 3.892,0.281 0.084,0.012 0.167,0.024 0.25,0.037 0.389,0.062 0.779,0.129 1.168,0.201 0.744,0.138 1.374,0.28 1.89,0.425 0.036,0.01 0.074,0.021 0.111,0.031 z m -35.227,0 v -6.188 c -0.791,-0.381 -1.922,-0.702 -3.39,-0.963 -0.16,-0.029 -0.321,-0.056 -0.482,-0.083 -1.706,-0.275 -3.241,-0.414 -4.606,-0.414 -2.105,-0.032 -4.204,0.249 -6.225,0.837 -4.561998,1.408 -7.438998,4.589 -8.630998,9.544 -0.445,1.949 -0.658,3.943 -0.636,5.942 v 31.7649996 h -7.65 v 3.897 l 7.65,3.362 3.41,11.401 h 4.677998 v -12.376 h 15.491 v -6.284 h -15.491 V -41.002915 c 0,-2.26 0.377,-4.151 1.131,-5.672 0.308,-0.628 0.697,-1.211 1.159,-1.735 1.526,-1.722 3.62,-2.583 6.284,-2.583 1.303,-0.002 2.604,0.092 3.893,0.281 0.083,0.012 0.166,0.024 0.249,0.037 0.391,0.062 0.779,0.129 1.168,0.201 0.742,0.138 1.373,0.28 1.891,0.425 0.036,0.01 0.072,0.021 0.107,0.031 z m -137.879998,0.196 h -0.584 l -1.703,-6.871 h -5.8 v 75.81 h 8.087 V 0.70008458 c 0.002,-1.89899998 -0.028,-3.79699998 -0.091,-5.69499998 -0.06,-1.797 -0.15,-3.495 -0.271,-5.0929996 -0.009,-0.106 -0.018,-0.212 -0.026,-0.318 h 0.388 c 3.105,4.4519996 8.018,7.3049996 13.4220003,7.7949996 1.108,0.132 2.224,0.196 3.34,0.193 2.35,0.023 4.693,-0.289 6.956,-0.927 3.705,-1.058 6.9859997,-3.246 9.3889997,-6.259 1.894,-2.3899996 3.313,-5.1219996 4.177,-8.0469996 0.687,-2.211 1.158,-4.641 1.415,-7.289 0.158,-1.664 0.234,-3.334 0.23,-5.005 0.016,-2.672 -0.193,-5.341 -0.627,-7.977 -0.861,-5.04 -2.609,-9.194 -5.244,-12.461 -3.3369997,-4.181 -8.2709997,-6.775 -13.60699971,-7.155 -0.89299999,-0.087 -1.79099999,-0.129 -2.68899999,-0.128 -2.079,-0.011 -4.15,0.241 -6.166,0.752 -1.1500003,0.297 -2.2740003,0.689 -3.3590003,1.173 -2.893,1.298 -5.391,3.341 -7.237,5.919 z m 320.193998,-6.871 h -8.09 v 34.738 c 0.007,1.175 -0.074,2.348 -0.239,3.51 -0.179,1.194 -0.457,2.272 -0.831,3.234 -0.388,1.03 -0.95,1.986 -1.658,2.829 -1.052,1.209 -2.423,2.096 -3.957,2.5599996 -0.939,0.302 -1.981,0.497 -3.126,0.584 -0.465,0.033 -0.93,0.049 -1.394,0.048 -1.422,0.011 -2.842,-0.124 -4.236,-0.403 -1.677,-0.349 -3.149,-0.9259996 -4.414,-1.7289996 -0.946,-0.598 -1.792,-1.342 -2.509,-2.202 -0.99,-1.224 -1.756,-2.612 -2.264,-4.102 -0.886,-2.485 -1.332,-5.541 -1.338,-9.167 v -0.083 -29.817 h -8.09 v 34.738 c 0.007,1.175 -0.072,2.348 -0.238,3.51 -0.18,1.194 -0.456,2.272 -0.83,3.234 -0.39,1.03 -0.951,1.986 -1.659,2.829 -1.039,1.193 -2.391,2.072 -3.903,2.5369996 -1.331,0.437 -2.872,0.655 -4.624,0.655 -1.393,0.011 -2.786,-0.123 -4.152,-0.4 -2.997,-0.6349996 -5.323,-2.0199996 -6.979,-4.1549996 -0.871,-1.157 -1.55,-2.446 -2.012,-3.819 -0.871,-2.458 -1.367,-5.532 -1.489,-9.221 -0.021,-0.631 -0.031,-1.262 -0.031,-1.893 v -28.015 h -8.087 v 53.3989996 h 6.576 l 1.316,-7.3079996 h 0.387 c 1.528,2.5989996 3.68,4.6279996 6.457,6.0889996 2.354,1.226 4.936,1.951 7.583,2.129 0.582,0.044 1.165,0.065 1.747,0.065 5.17,0 9.231,-1.159 12.183,-3.478 1.851,-1.472 3.292,-3.395 4.187,-5.5839996 h 0.391 c 1.512,2.6379996 3.709,4.8189996 6.358,6.3129996 0.184,0.107 0.371,0.211 0.558,0.311 2.332,1.239 4.882,2.015 7.51,2.285 0.937,0.103 1.878,0.154 2.82,0.153 1.709,0.011 3.416,-0.134 5.1,-0.434 3.556,-0.655 6.379,-2.062 8.47,-4.22 1.325,-1.405 2.342,-3.0709996 2.99,-4.8899996 1.011,-2.706 1.517,-6.037 1.517,-9.992 z"
         style="fill:none;stroke:#777777;stroke-width:2.009;stroke-linecap:round;stroke-linejoin:miter;stroke-miterlimit:11.339;stroke-dasharray:none;stroke-opacity:1"
         id="path742" /></g><g
       id="g744"
       transform="translate(741.23893,1256.504)"><path
         d="m 0,0 c -0.047,-0.294 -0.07,-0.592 -0.068,-0.89 0,-0.183 0.008,-0.367 0.026,-0.55 0.079,-0.824 0.344,-1.458 0.796,-1.902 0.28,-0.279 0.618,-0.493 0.989,-0.629 0.342,-0.121 0.703,-0.18 1.066,-0.176 0.782,0 1.457,0.269 2.024,0.805 0.188,0.178 0.344,0.386 0.465,0.615 0.139,0.267 0.242,0.571 0.306,0.913 0.055,0.305 0.082,0.614 0.08,0.924 0,0.176 -0.007,0.352 -0.023,0.527 C 5.582,0.469 5.306,1.105 4.833,1.545 4.266,2.072 3.591,2.336 2.809,2.336 2.727,2.337 2.645,2.335 2.563,2.33 1.887,2.299 1.245,2.025 0.754,1.559 0.541,1.356 0.37,1.113 0.25,0.845 0.136,0.597 0.053,0.316 0,0 m 18.859,-19.905 c -0.005,-0.669 0.06,-1.337 0.196,-1.992 0.177,-0.824 0.474,-1.545 0.889,-2.163 0.235,-0.349 0.511,-0.668 0.823,-0.95 0.726,-0.649 1.594,-1.12 2.534,-1.378 0.822,-0.236 1.747,-0.354 2.775,-0.354 0.937,-0.013 1.872,0.099 2.78,0.332 2.119,0.576 3.464,1.904 4.034,3.982 0.222,0.853 0.329,1.731 0.318,2.611 0,4.832 -2.407,7.248 -7.22,7.248 -2.289,0 -4.049,-0.616 -5.281,-1.848 -0.656,-0.669 -1.141,-1.487 -1.415,-2.384 -0.198,-0.614 -0.328,-1.295 -0.391,-2.044 -0.028,-0.352 -0.043,-0.706 -0.042,-1.06 m 10.21,-21.126 H 23.23 c -0.677,0.004 -1.352,-0.053 -2.019,-0.171 -1.268,-0.234 -2.316,-0.705 -3.146,-1.414 -0.872,-0.754 -1.465,-1.779 -1.684,-2.911 -0.112,-0.539 -0.167,-1.088 -0.164,-1.639 -0.009,-0.619 0.101,-1.235 0.323,-1.813 0.308,-0.781 0.838,-1.434 1.59,-1.959 0.095,-0.065 0.191,-0.128 0.289,-0.187 0.601,-0.359 1.246,-0.636 1.919,-0.823 1.216,-0.351 2.678,-0.527 4.389,-0.527 1.067,-0.004 2.134,0.044 3.197,0.145 2.138,0.209 3.877,0.649 5.219,1.318 0.228,0.113 0.45,0.237 0.666,0.371 1.965,1.223 2.948,2.88 2.948,4.972 0,1.079 -0.206,1.953 -0.618,2.622 -0.249,0.407 -0.59,0.751 -0.995,1.004 -1.076,0.674 -3.1,1.012 -6.075,1.012 M 5.213,-41.766 h -4.87 v 32.159 h 4.87 z M -5.672,-9.371 -6.347,-13.89 c -0.511,0.115 -1.027,0.21 -1.545,0.287 -0.512,0.074 -0.997,0.121 -1.454,0.142 -0.174,0.007 -0.347,0.011 -0.522,0.011 -2.363,0.015 -4.626,-0.962 -6.236,-2.693 -0.15,-0.155 -0.297,-0.314 -0.439,-0.476 -1.524,-1.751 -2.463,-3.934 -2.685,-6.245 -0.06,-0.547 -0.089,-1.097 -0.087,-1.647 v -17.255 h -4.873 v 32.16 h 4.02 l 0.558,-5.956 h 0.235 c 1.192,2.094 2.631,3.708 4.314,4.842 1.632,1.118 3.567,1.712 5.545,1.7 0.668,0.002 1.336,-0.026 2.001,-0.084 0.619,-0.054 1.234,-0.144 1.843,-0.267 m 105.811,-28.375 v -3.725 c -0.529,-0.255 -1.306,-0.466 -2.332,-0.632 -1.029,-0.166 -1.953,-0.249 -2.773,-0.249 -1.268,-0.02 -2.532,0.15 -3.75,0.504 -2.748,0.849 -4.481,2.765 -5.199,5.749 -0.268,1.173 -0.396,2.374 -0.382,3.578 v 19.13 h -4.607 v 2.348 l 4.607,2.023 2.052,6.869 h 2.817 v -7.455 h 9.332 v -3.785 h -9.332 v -18.927 c -0.003,-0.576 0.045,-1.152 0.142,-1.72 0.201,-1.121 0.614,-2.034 1.239,-2.738 0.719,-0.812 1.706,-1.338 2.781,-1.483 0.332,-0.051 0.667,-0.075 1.003,-0.074 0.862,0 1.694,0.063 2.495,0.19 0.765,0.123 1.379,0.249 1.843,0.38 0.021,0.006 0.043,0.011 0.064,0.017 m -69.397,28.14 h 11.123 v -3.082 l -5.959,-0.703 c 0.255,-0.321 0.485,-0.663 0.686,-1.02 0.2,-0.35 0.391,-0.735 0.573,-1.157 0.073,-0.167 0.143,-0.337 0.21,-0.507 0.276,-0.721 0.463,-1.473 0.555,-2.239 0.062,-0.499 0.092,-1 0.091,-1.503 0.012,-1.173 -0.161,-2.341 -0.513,-3.461 -0.512,-1.584 -1.452,-2.995 -2.716,-4.079 -1.938,-1.693 -4.528,-2.623 -7.77,-2.789 -0.363,-0.019 -0.727,-0.028 -1.091,-0.029 -0.605,-10e-4 -1.21,0.033 -1.811,0.102 -0.298,0.035 -0.595,0.079 -0.89,0.134 -1.183,-0.626 -2.029,-1.344 -2.537,-2.155 -0.377,-0.593 -0.576,-1.281 -0.573,-1.984 0,-0.88 0.362,-1.53 1.086,-1.95 0.239,-0.134 0.493,-0.239 0.757,-0.312 0.529,-0.155 1.196,-0.253 2.001,-0.295 0.323,-0.017 0.646,-0.025 0.97,-0.025 h 5.691 c 1.014,0.005 2.026,-0.067 3.028,-0.216 1.056,-0.162 2.011,-0.416 2.863,-0.762 0.765,-0.305 1.484,-0.717 2.134,-1.222 1.429,-1.121 2.376,-2.745 2.648,-4.541 0.106,-0.613 0.158,-1.235 0.156,-1.857 0.015,-1.242 -0.189,-2.477 -0.604,-3.648 -0.648,-1.771 -1.82,-3.232 -3.515,-4.382 -0.055,-0.038 -0.111,-0.074 -0.167,-0.111 -1.99,-1.304 -4.619,-2.152 -7.886,-2.545 -1.531,-0.179 -3.071,-0.264 -4.612,-0.258 -1.225,-0.006 -2.448,0.071 -3.663,0.229 -2.477,0.337 -4.499,1.042 -6.066,2.118 -2.279,1.564 -3.418,3.775 -3.418,6.633 0,1.956 0.626,3.647 1.879,5.074 0.809,0.91 1.806,1.636 2.92,2.128 0.758,0.34 1.549,0.601 2.361,0.777 -0.779,0.355 -1.454,0.901 -1.964,1.588 -0.036,0.048 -0.071,0.095 -0.105,0.144 -0.508,0.716 -0.795,1.564 -0.828,2.441 -0.005,0.096 -0.008,0.193 -0.009,0.289 -0.005,0.61 0.09,1.216 0.281,1.794 0.155,0.459 0.377,0.893 0.658,1.287 0.272,0.376 0.58,0.723 0.921,1.038 0.327,0.306 0.7,0.608 1.12,0.907 0.301,0.213 0.609,0.416 0.924,0.607 -1.663,0.686 -3.018,1.85 -4.065,3.492 -0.922,1.458 -1.454,3.13 -1.545,4.853 -0.017,0.26 -0.025,0.521 -0.026,0.782 -0.008,1.119 0.116,2.235 0.372,3.325 0.416,1.855 1.393,3.536 2.798,4.816 1.825,1.648 4.307,2.585 7.446,2.809 0.511,0.035 1.022,0.052 1.534,0.051 0.826,0.003 1.65,-0.049 2.469,-0.156 0.702,-0.091 1.397,-0.235 2.078,-0.43 m 44.603,-32.16 h -4.873 v 20.804 c 0.005,0.723 -0.047,1.445 -0.156,2.16 -0.121,0.758 -0.311,1.439 -0.569,2.044 -0.257,0.612 -0.616,1.176 -1.063,1.667 -0.622,0.657 -1.396,1.151 -2.254,1.437 -0.59,0.208 -1.247,0.35 -1.973,0.428 -0.457,0.048 -0.917,0.072 -1.378,0.071 -2.211,0 -4.031,-0.392 -5.459,-1.177 -0.743,-0.402 -1.404,-0.938 -1.951,-1.582 -1.555,-1.838 -2.333,-4.852 -2.333,-9.039 V -41.766 H 48.467 V 3.892 h 4.869 V -9.93 c 0,-1.196 -0.04,-2.246 -0.121,-3.149 -0.029,-0.33 -0.068,-0.658 -0.113,-0.986 h 0.294 c 0.958,1.545 2.323,2.763 4.093,3.653 1.288,0.639 2.677,1.05 4.105,1.217 0.648,0.08 1.3,0.119 1.953,0.119 2.587,0 4.748,-0.405 6.483,-1.214 0.869,-0.398 1.668,-0.935 2.364,-1.59 0.943,-0.918 1.659,-2.042 2.092,-3.285 0.336,-0.909 0.574,-1.929 0.711,-3.059 0.102,-0.85 0.151,-1.706 0.148,-2.562 z"
         style="fill:#777777;fill-opacity:1;fill-rule:evenodd;stroke:none"
         id="path746" /></g><g
       id="g748"
       transform="translate(741.23893,1256.504)"><path
         d="m 0,0 c -0.047,-0.294 -0.07,-0.592 -0.068,-0.89 0,-0.183 0.008,-0.367 0.026,-0.55 0.079,-0.824 0.344,-1.458 0.796,-1.902 0.28,-0.279 0.618,-0.493 0.989,-0.629 0.342,-0.121 0.703,-0.18 1.066,-0.176 0.782,0 1.457,0.269 2.024,0.805 0.188,0.178 0.344,0.386 0.465,0.615 0.139,0.267 0.242,0.571 0.306,0.913 0.055,0.305 0.082,0.614 0.08,0.924 0,0.176 -0.007,0.352 -0.023,0.527 C 5.582,0.469 5.306,1.105 4.833,1.545 4.266,2.072 3.591,2.336 2.809,2.336 2.727,2.337 2.645,2.335 2.563,2.33 1.887,2.299 1.245,2.025 0.754,1.559 0.541,1.356 0.37,1.113 0.25,0.845 0.136,0.597 0.053,0.316 0,0 Z m 18.859,-19.905 c -0.005,-0.669 0.06,-1.337 0.196,-1.992 0.177,-0.824 0.474,-1.545 0.889,-2.163 0.235,-0.349 0.511,-0.668 0.823,-0.95 0.726,-0.649 1.594,-1.12 2.534,-1.378 0.822,-0.236 1.747,-0.354 2.775,-0.354 0.937,-0.013 1.872,0.099 2.78,0.332 2.119,0.576 3.464,1.904 4.034,3.982 0.222,0.853 0.329,1.731 0.318,2.611 0,4.832 -2.407,7.248 -7.22,7.248 -2.289,0 -4.049,-0.616 -5.281,-1.848 -0.656,-0.669 -1.141,-1.487 -1.415,-2.384 -0.198,-0.614 -0.328,-1.295 -0.391,-2.044 -0.028,-0.352 -0.043,-0.706 -0.042,-1.06 z m 10.21,-21.126 H 23.23 c -0.677,0.004 -1.352,-0.053 -2.019,-0.171 -1.268,-0.234 -2.316,-0.705 -3.146,-1.414 -0.872,-0.754 -1.465,-1.779 -1.684,-2.911 -0.112,-0.539 -0.167,-1.088 -0.164,-1.639 -0.009,-0.619 0.101,-1.235 0.323,-1.813 0.308,-0.781 0.838,-1.434 1.59,-1.959 0.095,-0.065 0.191,-0.128 0.289,-0.187 0.601,-0.359 1.246,-0.636 1.919,-0.823 1.216,-0.351 2.678,-0.527 4.389,-0.527 1.067,-0.004 2.134,0.044 3.197,0.145 2.138,0.209 3.877,0.649 5.219,1.318 0.228,0.113 0.45,0.237 0.666,0.371 1.965,1.223 2.948,2.88 2.948,4.972 0,1.079 -0.206,1.953 -0.618,2.622 -0.249,0.407 -0.59,0.751 -0.995,1.004 -1.076,0.674 -3.1,1.012 -6.075,1.012 z M 5.213,-41.766 h -4.87 v 32.159 h 4.87 z M -5.672,-9.371 -6.347,-13.89 c -0.511,0.115 -1.027,0.21 -1.545,0.287 -0.512,0.074 -0.997,0.121 -1.454,0.142 -0.174,0.007 -0.347,0.011 -0.522,0.011 -2.363,0.015 -4.626,-0.962 -6.236,-2.693 -0.15,-0.155 -0.297,-0.314 -0.439,-0.476 -1.524,-1.751 -2.463,-3.934 -2.685,-6.245 -0.06,-0.547 -0.089,-1.097 -0.087,-1.647 v -17.255 h -4.873 v 32.16 h 4.02 l 0.558,-5.956 h 0.235 c 1.192,2.094 2.631,3.708 4.314,4.842 1.632,1.118 3.567,1.712 5.545,1.7 0.668,0.002 1.336,-0.026 2.001,-0.084 0.619,-0.054 1.234,-0.144 1.843,-0.267 z m 105.811,-28.375 v -3.725 c -0.529,-0.255 -1.306,-0.466 -2.332,-0.632 -1.029,-0.166 -1.953,-0.249 -2.773,-0.249 -1.268,-0.02 -2.532,0.15 -3.75,0.504 -2.748,0.849 -4.481,2.765 -5.199,5.749 -0.268,1.173 -0.396,2.374 -0.382,3.578 v 19.13 h -4.607 v 2.348 l 4.607,2.023 2.052,6.869 h 2.817 v -7.455 h 9.332 v -3.785 h -9.332 v -18.927 c -0.003,-0.576 0.045,-1.152 0.142,-1.72 0.201,-1.121 0.614,-2.034 1.239,-2.738 0.719,-0.812 1.706,-1.338 2.781,-1.483 0.332,-0.051 0.667,-0.075 1.003,-0.074 0.862,0 1.694,0.063 2.495,0.19 0.765,0.123 1.379,0.249 1.843,0.38 0.021,0.006 0.043,0.011 0.064,0.017 z m -69.397,28.14 h 11.123 v -3.082 l -5.959,-0.703 c 0.255,-0.321 0.485,-0.663 0.686,-1.02 0.2,-0.35 0.391,-0.735 0.573,-1.157 0.073,-0.167 0.143,-0.337 0.21,-0.507 0.276,-0.721 0.463,-1.473 0.555,-2.239 0.062,-0.499 0.092,-1 0.091,-1.503 0.012,-1.173 -0.161,-2.341 -0.513,-3.461 -0.512,-1.584 -1.452,-2.995 -2.716,-4.079 -1.938,-1.693 -4.528,-2.623 -7.77,-2.789 -0.363,-0.019 -0.727,-0.028 -1.091,-0.029 -0.605,-10e-4 -1.21,0.033 -1.811,0.102 -0.298,0.035 -0.595,0.079 -0.89,0.134 -1.183,-0.626 -2.029,-1.344 -2.537,-2.155 -0.377,-0.593 -0.576,-1.281 -0.573,-1.984 0,-0.88 0.362,-1.53 1.086,-1.95 0.239,-0.134 0.493,-0.239 0.757,-0.312 0.529,-0.155 1.196,-0.253 2.001,-0.295 0.323,-0.017 0.646,-0.025 0.97,-0.025 h 5.691 c 1.014,0.005 2.026,-0.067 3.028,-0.216 1.056,-0.162 2.011,-0.416 2.863,-0.762 0.765,-0.305 1.484,-0.717 2.134,-1.222 1.429,-1.121 2.376,-2.745 2.648,-4.541 0.106,-0.613 0.158,-1.235 0.156,-1.857 0.015,-1.242 -0.189,-2.477 -0.604,-3.648 -0.648,-1.771 -1.82,-3.232 -3.515,-4.382 -0.055,-0.038 -0.111,-0.074 -0.167,-0.111 -1.99,-1.304 -4.619,-2.152 -7.886,-2.545 -1.531,-0.179 -3.071,-0.264 -4.612,-0.258 -1.225,-0.006 -2.448,0.071 -3.663,0.229 -2.477,0.337 -4.499,1.042 -6.066,2.118 -2.279,1.564 -3.418,3.775 -3.418,6.633 0,1.956 0.626,3.647 1.879,5.074 0.809,0.91 1.806,1.636 2.92,2.128 0.758,0.34 1.549,0.601 2.361,0.777 -0.779,0.355 -1.454,0.901 -1.964,1.588 -0.036,0.048 -0.071,0.095 -0.105,0.144 -0.508,0.716 -0.795,1.564 -0.828,2.441 -0.005,0.096 -0.008,0.193 -0.009,0.289 -0.005,0.61 0.09,1.216 0.281,1.794 0.155,0.459 0.377,0.893 0.658,1.287 0.272,0.376 0.58,0.723 0.921,1.038 0.327,0.306 0.7,0.608 1.12,0.907 0.301,0.213 0.609,0.416 0.924,0.607 -1.663,0.686 -3.018,1.85 -4.065,3.492 -0.922,1.458 -1.454,3.13 -1.545,4.853 -0.017,0.26 -0.025,0.521 -0.026,0.782 -0.008,1.119 0.116,2.235 0.372,3.325 0.416,1.855 1.393,3.536 2.798,4.816 1.825,1.648 4.307,2.585 7.446,2.809 0.511,0.035 1.022,0.052 1.534,0.051 0.826,0.003 1.65,-0.049 2.469,-0.156 0.702,-0.091 1.397,-0.235 2.078,-0.43 z m 44.603,-32.16 h -4.873 v 20.804 c 0.005,0.723 -0.047,1.445 -0.156,2.16 -0.121,0.758 -0.311,1.439 -0.569,2.044 -0.257,0.612 -0.616,1.176 -1.063,1.667 -0.622,0.657 -1.396,1.151 -2.254,1.437 -0.59,0.208 -1.247,0.35 -1.973,0.428 -0.457,0.048 -0.917,0.072 -1.378,0.071 -2.211,0 -4.031,-0.392 -5.459,-1.177 -0.743,-0.402 -1.404,-0.938 -1.951,-1.582 -1.555,-1.838 -2.333,-4.852 -2.333,-9.039 V -41.766 H 48.467 V 3.892 h 4.869 V -9.93 c 0,-1.196 -0.04,-2.246 -0.121,-3.149 -0.029,-0.33 -0.068,-0.658 -0.113,-0.986 h 0.294 c 0.958,1.545 2.323,2.763 4.093,3.653 1.288,0.639 2.677,1.05 4.105,1.217 0.648,0.08 1.3,0.119 1.953,0.119 2.587,0 4.748,-0.405 6.483,-1.214 0.869,-0.398 1.668,-0.935 2.364,-1.59 0.943,-0.918 1.659,-2.042 2.092,-3.285 0.336,-0.909 0.574,-1.929 0.711,-3.059 0.102,-0.85 0.151,-1.706 0.148,-2.562 z"
         style="fill:none;stroke:#777777;stroke-width:2.009;stroke-linecap:round;stroke-linejoin:miter;stroke-miterlimit:11.339;stroke-dasharray:none;stroke-opacity:1"
         id="path750" /></g><g
       id="g752"
       transform="translate(371.5722,546.07924)"><path
         d="M 0,0 V 2.906 L -4.873,2.699 C -5.828,2.668 -6.781,2.599 -7.73,2.492 -9.608,2.272 -11.136,1.903 -12.313,1.384 -12.637,1.243 -12.949,1.08 -13.249,0.896 c -1.712,-1.068 -2.568,-2.726 -2.568,-4.975 -0.005,-0.537 0.053,-1.074 0.172,-1.599 0.235,-0.996 0.71,-1.802 1.426,-2.421 0.58,-0.489 1.258,-0.848 1.988,-1.053 0.525,-0.158 1.101,-0.258 1.729,-0.301 0.252,-0.018 0.506,-0.026 0.759,-0.026 0.974,-0.007 1.945,0.092 2.897,0.295 1.696,0.376 3.112,1.109 4.249,2.2 1.722,1.653 2.588,3.964 2.597,6.933 z m -41.083,15.698 c -0.889,0.007 -1.776,-0.072 -2.65,-0.238 -1.005,-0.2 -1.891,-0.524 -2.656,-0.972 -0.729,-0.423 -1.368,-0.982 -1.882,-1.649 -1.467,-1.909 -2.2,-5.123 -2.2,-9.641 0,-3.839 0.543,-6.749 1.63,-8.731 0.184,-0.338 0.395,-0.661 0.63,-0.967 1.351,-1.744 3.432,-2.707 6.244,-2.888 0.334,-0.021 0.669,-0.032 1.004,-0.031 2.993,0 5.223,1.09 6.69,3.271 0.606,0.924 1.072,1.933 1.383,2.994 0.289,0.946 0.501,1.993 0.638,3.14 0.123,1.086 0.183,2.178 0.178,3.271 0,3.969 -0.658,6.979 -1.976,9.031 -0.072,0.112 -0.146,0.222 -0.223,0.329 -1.077,1.507 -2.699,2.534 -4.522,2.863 -0.753,0.151 -1.519,0.224 -2.288,0.218 m 77.437,2.464 -1.496,-4.136 c -0.768,0.305 -1.553,0.567 -2.35,0.783 -0.388,0.105 -0.779,0.202 -1.171,0.289 -1.087,0.242 -2.066,0.381 -2.94,0.417 -0.144,0.006 -0.289,0.007 -0.433,0.007 -6.535,0 -9.802,-4.167 -9.802,-12.5 0,-3.952 0.797,-6.984 2.392,-9.096 1.215,-1.615 3.014,-2.691 5.012,-2.996 0.685,-0.119 1.379,-0.177 2.075,-0.173 1.903,0.009 3.796,0.284 5.624,0.819 0.89,0.255 1.765,0.56 2.622,0.912 v -4.314 c -1.074,-0.545 -2.213,-0.948 -3.39,-1.198 -1.424,-0.317 -3.003,-0.474 -4.74,-0.474 -1.491,-0.013 -2.978,0.157 -4.428,0.507 -2.467,0.579 -4.695,1.903 -6.384,3.793 -2.552,2.865 -3.829,6.919 -3.829,12.161 -0.011,1.638 0.129,3.273 0.417,4.887 0.336,1.817 0.877,3.443 1.621,4.875 0.503,0.975 1.124,1.885 1.848,2.71 1.813,2.036 4.237,3.429 6.908,3.971 1.37,0.295 2.769,0.439 4.17,0.428 1.546,0 3.092,-0.166 4.637,-0.499 1.528,-0.328 2.73,-0.714 3.609,-1.156 0.009,-0.006 0.019,-0.011 0.028,-0.017 M 4.87,-12.911 H 1.261 L 0.292,-8.334 H 0.057 c -0.507,-0.642 -1.052,-1.252 -1.633,-1.828 -0.586,-0.576 -1.172,-1.065 -1.757,-1.466 -0.444,-0.308 -0.915,-0.575 -1.407,-0.799 -0.744,-0.327 -1.523,-0.572 -2.321,-0.731 -0.751,-0.156 -1.56,-0.259 -2.429,-0.306 -0.407,-0.023 -0.815,-0.034 -1.222,-0.034 -2.549,0 -4.659,0.526 -6.327,1.579 -0.415,0.261 -0.805,0.558 -1.168,0.887 -1.223,1.122 -2.067,2.597 -2.415,4.22 -0.207,0.916 -0.308,1.854 -0.3,2.792 -0.14,3.373 1.747,6.502 4.793,7.955 2.381,1.266 5.647,2.004 9.796,2.216 0.331,0.017 0.662,0.031 0.993,0.04 l 5.456,0.176 v 1.995 c 0,1.542 -0.203,2.838 -0.609,3.887 -0.232,0.625 -0.577,1.203 -1.018,1.703 -0.555,0.602 -1.252,1.056 -2.027,1.321 -0.54,0.197 -1.145,0.333 -1.814,0.412 -0.454,0.05 -0.912,0.075 -1.369,0.073 -1.23,-0.01 -2.454,-0.163 -3.648,-0.456 -1.701,-0.403 -3.517,-1.073 -5.448,-2.01 l -1.497,3.728 c 1.379,0.743 2.832,1.339 4.334,1.78 0.291,0.086 0.583,0.168 0.876,0.243 1.854,0.485 3.762,0.732 5.678,0.734 1.048,0.006 2.095,-0.069 3.132,-0.223 1.074,-0.164 2.039,-0.423 2.897,-0.777 0.918,-0.365 1.762,-0.891 2.495,-1.553 1.449,-1.334 2.33,-3.301 2.642,-5.899 0.089,-0.76 0.132,-1.523 0.13,-2.288 z m -55.341,4.139 h -0.351 l -1.03,-4.139 h -3.489 v 45.657 h 4.87 V 21.654 c 0,-2.404 -0.073,-4.569 -0.221,-6.497 -0.005,-0.064 -0.009,-0.129 -0.014,-0.192 h 0.235 c 1.87,2.681 4.829,4.398 8.085,4.693 0.666,0.081 1.338,0.12 2.01,0.119 1.416,0.015 2.826,-0.173 4.189,-0.558 2.231,-0.637 4.208,-1.955 5.655,-3.77 1.142,-1.439 1.996,-3.085 2.517,-4.847 0.66,-2.13 0.99,-4.598 0.99,-7.404 0.008,-1.61 -0.119,-3.217 -0.38,-4.805 -0.291,-1.706 -0.752,-3.245 -1.381,-4.615 -0.469,-1.032 -1.066,-2.003 -1.774,-2.888 -2.01,-2.52 -4.983,-4.083 -8.198,-4.312 -0.538,-0.052 -1.078,-0.077 -1.618,-0.076 -1.253,-0.007 -2.5,0.145 -3.714,0.453 -0.693,0.179 -1.37,0.415 -2.024,0.706 -1.731,0.773 -3.183,1.962 -4.357,3.567 M 48.093,3.549 h 0.235 c 0.642,0.915 1.544,2.047 2.704,3.396 0.376,0.437 0.756,0.87 1.14,1.301 l 10.386,11.001 h 5.78 L 55.31,5.545 69.248,-12.911 H 63.352 L 51.996,2.288 48.328,-0.881 v -12.03 h -4.813 v 45.657 h 4.813 V 8.538 C 48.328,7.463 48.25,5.8 48.093,3.549"
         style="fill:#777777;fill-opacity:1;fill-rule:evenodd;stroke:none"
         id="path754" /></g><g
       id="g756"
       transform="translate(371.5722,546.07924)"><path
         d="M 0,0 V 2.906 L -4.873,2.699 C -5.828,2.668 -6.781,2.599 -7.73,2.492 -9.608,2.272 -11.136,1.903 -12.313,1.384 -12.637,1.243 -12.949,1.08 -13.249,0.896 c -1.712,-1.068 -2.568,-2.726 -2.568,-4.975 -0.005,-0.537 0.053,-1.074 0.172,-1.599 0.235,-0.996 0.71,-1.802 1.426,-2.421 0.58,-0.489 1.258,-0.848 1.988,-1.053 0.525,-0.158 1.101,-0.258 1.729,-0.301 0.252,-0.018 0.506,-0.026 0.759,-0.026 0.974,-0.007 1.945,0.092 2.897,0.295 1.696,0.376 3.112,1.109 4.249,2.2 1.722,1.653 2.588,3.964 2.597,6.933 z m -41.083,15.698 c -0.889,0.007 -1.776,-0.072 -2.65,-0.238 -1.005,-0.2 -1.891,-0.524 -2.656,-0.972 -0.729,-0.423 -1.368,-0.982 -1.882,-1.649 -1.467,-1.909 -2.2,-5.123 -2.2,-9.641 0,-3.839 0.543,-6.749 1.63,-8.731 0.184,-0.338 0.395,-0.661 0.63,-0.967 1.351,-1.744 3.432,-2.707 6.244,-2.888 0.334,-0.021 0.669,-0.032 1.004,-0.031 2.993,0 5.223,1.09 6.69,3.271 0.606,0.924 1.072,1.933 1.383,2.994 0.289,0.946 0.501,1.993 0.638,3.14 0.123,1.086 0.183,2.178 0.178,3.271 0,3.969 -0.658,6.979 -1.976,9.031 -0.072,0.112 -0.146,0.222 -0.223,0.329 -1.077,1.507 -2.699,2.534 -4.522,2.863 -0.753,0.151 -1.519,0.224 -2.288,0.218 z m 77.437,2.464 -1.496,-4.136 c -0.768,0.305 -1.553,0.567 -2.35,0.783 -0.388,0.105 -0.779,0.202 -1.171,0.289 -1.087,0.242 -2.066,0.381 -2.94,0.417 -0.144,0.006 -0.289,0.007 -0.433,0.007 -6.535,0 -9.802,-4.167 -9.802,-12.5 0,-3.952 0.797,-6.984 2.392,-9.096 1.215,-1.615 3.014,-2.691 5.012,-2.996 0.685,-0.119 1.379,-0.177 2.075,-0.173 1.903,0.009 3.796,0.284 5.624,0.819 0.89,0.255 1.765,0.56 2.622,0.912 v -4.314 c -1.074,-0.545 -2.213,-0.948 -3.39,-1.198 -1.424,-0.317 -3.003,-0.474 -4.74,-0.474 -1.491,-0.013 -2.978,0.157 -4.428,0.507 -2.467,0.579 -4.695,1.903 -6.384,3.793 -2.552,2.865 -3.829,6.919 -3.829,12.161 -0.011,1.638 0.129,3.273 0.417,4.887 0.336,1.817 0.877,3.443 1.621,4.875 0.503,0.975 1.124,1.885 1.848,2.71 1.813,2.036 4.237,3.429 6.908,3.971 1.37,0.295 2.769,0.439 4.17,0.428 1.546,0 3.092,-0.166 4.637,-0.499 1.528,-0.328 2.73,-0.714 3.609,-1.156 0.009,-0.006 0.019,-0.011 0.028,-0.017 z M 4.87,-12.911 H 1.261 L 0.292,-8.334 H 0.057 c -0.507,-0.642 -1.052,-1.252 -1.633,-1.828 -0.586,-0.576 -1.172,-1.065 -1.757,-1.466 -0.444,-0.308 -0.915,-0.575 -1.407,-0.799 -0.744,-0.327 -1.523,-0.572 -2.321,-0.731 -0.751,-0.156 -1.56,-0.259 -2.429,-0.306 -0.407,-0.023 -0.815,-0.034 -1.222,-0.034 -2.549,0 -4.659,0.526 -6.327,1.579 -0.415,0.261 -0.805,0.558 -1.168,0.887 -1.223,1.122 -2.067,2.597 -2.415,4.22 -0.207,0.916 -0.308,1.854 -0.3,2.792 -0.14,3.373 1.747,6.502 4.793,7.955 2.381,1.266 5.647,2.004 9.796,2.216 0.331,0.017 0.662,0.031 0.993,0.04 l 5.456,0.176 v 1.995 c 0,1.542 -0.203,2.838 -0.609,3.887 -0.232,0.625 -0.577,1.203 -1.018,1.703 -0.555,0.602 -1.252,1.056 -2.027,1.321 -0.54,0.197 -1.145,0.333 -1.814,0.412 -0.454,0.05 -0.912,0.075 -1.369,0.073 -1.23,-0.01 -2.454,-0.163 -3.648,-0.456 -1.701,-0.403 -3.517,-1.073 -5.448,-2.01 l -1.497,3.728 c 1.379,0.743 2.832,1.339 4.334,1.78 0.291,0.086 0.583,0.168 0.876,0.243 1.854,0.485 3.762,0.732 5.678,0.734 1.048,0.006 2.095,-0.069 3.132,-0.223 1.074,-0.164 2.039,-0.423 2.897,-0.777 0.918,-0.365 1.762,-0.891 2.495,-1.553 1.449,-1.334 2.33,-3.301 2.642,-5.899 0.089,-0.76 0.132,-1.523 0.13,-2.288 z m -55.341,4.139 h -0.351 l -1.03,-4.139 h -3.489 v 45.657 h 4.87 V 21.654 c 0,-2.404 -0.073,-4.569 -0.221,-6.497 -0.005,-0.064 -0.009,-0.129 -0.014,-0.192 h 0.235 c 1.87,2.681 4.829,4.398 8.085,4.693 0.666,0.081 1.338,0.12 2.01,0.119 1.416,0.015 2.826,-0.173 4.189,-0.558 2.231,-0.637 4.208,-1.955 5.655,-3.77 1.142,-1.439 1.996,-3.085 2.517,-4.847 0.66,-2.13 0.99,-4.598 0.99,-7.404 0.008,-1.61 -0.119,-3.217 -0.38,-4.805 -0.291,-1.706 -0.752,-3.245 -1.381,-4.615 -0.469,-1.032 -1.066,-2.003 -1.774,-2.888 -2.01,-2.52 -4.983,-4.083 -8.198,-4.312 -0.538,-0.052 -1.078,-0.077 -1.618,-0.076 -1.253,-0.007 -2.5,0.145 -3.714,0.453 -0.693,0.179 -1.37,0.415 -2.024,0.706 -1.731,0.773 -3.183,1.962 -4.357,3.567 z M 48.093,3.549 h 0.235 c 0.642,0.915 1.544,2.047 2.704,3.396 0.376,0.437 0.756,0.87 1.14,1.301 l 10.386,11.001 h 5.78 L 55.31,5.545 69.248,-12.911 H 63.352 L 51.996,2.288 48.328,-0.881 v -12.03 h -4.813 v 45.657 h 4.813 V 8.538 C 48.328,7.463 48.25,5.8 48.093,3.549 Z"
         style="fill:none;stroke:#777777;stroke-width:2.009;stroke-linecap:round;stroke-linejoin:miter;stroke-miterlimit:11.339;stroke-dasharray:none;stroke-opacity:1"
         id="path758" /></g><g
       id="g1173"
       transform="translate(-185.3693,19.523281)"><g
         id="g760"
         transform="translate(1498.5352,356.3088)"><path
           d="m 0,0 v -1.803 c -0.007,-1.844 0.081,-3.688 0.264,-5.524 0.487,-4.677 1.65,-8.202 3.487,-10.576 2.243,-2.897 5.699,-4.495 10.369,-4.796 0.555,-0.035 1.11,-0.052 1.666,-0.051 4.611,0 8.225,1.866 10.84,5.601 2.063,2.948 3.312,6.776 3.747,11.483 0.119,1.317 0.177,2.64 0.174,3.963 0,4.369 -0.563,8.07 -1.688,11.103 -0.544,1.503 -1.296,2.923 -2.233,4.218 -2.147,3.016 -5.513,4.933 -9.201,5.241 -0.61,0.064 -1.222,0.095 -1.834,0.094 -1.46,0.011 -2.918,-0.115 -4.354,-0.377 C 9.621,18.268 8.192,17.771 6.951,17.088 5.72,16.418 4.632,15.513 3.751,14.423 2.818,13.234 2.087,11.9 1.585,10.475 0.67,7.991 0.15,4.914 0.025,1.242 0.013,0.828 0.004,0.414 0,0 m -62.946,-1.8 c -0.01,-1.957 0.12,-3.912 0.388,-5.85 0.287,-1.981 0.733,-3.773 1.335,-5.377 0.572,-1.564 1.369,-3.035 2.368,-4.366 2.102,-2.758 5.202,-4.584 8.634,-5.083 1.124,-0.187 2.262,-0.28 3.402,-0.274 1.672,-0.017 3.338,0.19 4.955,0.615 2.828,0.735 5.33,2.397 7.103,4.719 1.196,1.589 2.11,3.37 2.701,5.268 0.532,1.621 0.913,3.421 1.143,5.402 0.187,1.642 0.277,3.294 0.271,4.946 0.01,1.923 -0.118,3.845 -0.381,5.749 -0.283,1.952 -0.72,3.718 -1.313,5.298 -0.578,1.588 -1.394,3.079 -2.421,4.422 -2.045,2.619 -4.995,4.379 -8.271,4.933 -1.281,0.241 -2.583,0.358 -3.887,0.351 -1.614,0.015 -3.224,-0.174 -4.79,-0.561 -2.859,-0.685 -5.397,-2.326 -7.194,-4.652 -1.146,-1.514 -2.025,-3.214 -2.6,-5.023 C -62.015,7.179 -62.391,5.468 -62.628,3.583 -62.848,1.798 -62.953,0 -62.946,-1.8 m 39.937,-8.127 c 0.513,2.678 0.761,5.399 0.743,8.124 0,0.429 -0.005,0.857 -0.017,1.284 -0.213,7.877 -2.408,14.173 -6.585,18.888 -4.401,4.97 -10.337,7.455 -17.807,7.455 -1.891,0.009 -3.779,-0.153 -5.64,-0.484 -4.816,-0.778 -9.22,-3.178 -12.485,-6.801 -2.889,-3.224 -4.819,-7.297 -5.791,-12.22 -0.509,-2.676 -0.756,-5.397 -0.737,-8.122 -0.008,-2.193 0.163,-4.384 0.511,-6.551 0.442,-2.826 1.288,-5.574 2.511,-8.16 0.187,-0.389 0.383,-0.774 0.589,-1.154 1.846,-3.5 4.606,-6.436 7.986,-8.492 1.62,-0.982 3.357,-1.753 5.17,-2.299 2.45,-0.724 4.992,-1.082 7.546,-1.063 1.838,-0.009 3.673,0.144 5.485,0.456 4.893,0.767 9.374,3.195 12.688,6.877 2.912,3.245 4.857,7.333 5.833,12.262 m -56.015,-11.948 v -6.187 c -0.791,-0.38 -1.922,-0.702 -3.39,-0.964 -0.161,-0.029 -0.323,-0.056 -0.484,-0.082 -1.706,-0.277 -3.24,-0.414 -4.604,-0.414 -2.105,-0.034 -4.203,0.249 -6.226,0.835 -4.561,1.409 -7.439,4.591 -8.633,9.548 -0.445,1.948 -0.658,3.941 -0.635,5.939 v 31.764 h -7.649 v 3.898 l 7.649,3.362 3.412,11.401 h 4.678 V 24.849 h 15.491 V 18.564 H -94.906 V -12.86 c 0,-2.26 0.376,-4.151 1.128,-5.672 0.307,-0.628 0.697,-1.211 1.159,-1.736 1.527,-1.721 3.623,-2.582 6.287,-2.582 1.302,-0.002 2.602,0.092 3.89,0.281 0.084,0.011 0.168,0.024 0.252,0.037 0.389,0.061 0.777,0.129 1.165,0.201 0.745,0.138 1.375,0.28 1.89,0.426 0.037,0.009 0.074,0.02 0.111,0.03 M 0,-21.679 h -0.584 c 0.237,-1.878 0.404,-3.764 0.502,-5.655 C -0.027,-28.403 0,-29.475 0,-30.546 V -52.52 h -8.087 v 77.369 h 6.576 l 1.12,-7.308 H 0 c 0.915,1.303 1.971,2.502 3.146,3.575 1.228,1.116 2.615,2.046 4.114,2.758 1.839,0.854 3.796,1.426 5.805,1.698 1.224,0.171 2.458,0.255 3.694,0.252 7.081,0 12.546,-2.42 16.395,-7.26 1.878,-2.412 3.284,-5.156 4.145,-8.089 1.086,-3.542 1.63,-7.634 1.63,-12.278 0.015,-2.672 -0.196,-5.34 -0.63,-7.976 -0.861,-5.04 -2.609,-9.194 -5.241,-12.461 -3.337,-4.182 -8.273,-6.777 -13.609,-7.155 -0.894,-0.086 -1.792,-0.129 -2.69,-0.127 -2.078,-0.012 -4.149,0.241 -6.162,0.751 -1.153,0.296 -2.277,0.689 -3.363,1.173 C 4.342,-26.3 1.846,-24.257 0,-21.679"
           style="fill:#777777;fill-opacity:1;fill-rule:evenodd;stroke:none"
           id="path762" /></g><g
         id="g764"
         transform="translate(1498.5352,356.3088)"><path
           d="m 0,0 v -1.803 c -0.007,-1.844 0.081,-3.688 0.264,-5.524 0.487,-4.677 1.65,-8.202 3.487,-10.576 2.243,-2.897 5.699,-4.495 10.369,-4.796 0.555,-0.035 1.11,-0.052 1.666,-0.051 4.611,0 8.225,1.866 10.84,5.601 2.063,2.948 3.312,6.776 3.747,11.483 0.119,1.317 0.177,2.64 0.174,3.963 0,4.369 -0.563,8.07 -1.688,11.103 -0.544,1.503 -1.296,2.923 -2.233,4.218 -2.147,3.016 -5.513,4.933 -9.201,5.241 -0.61,0.064 -1.222,0.095 -1.834,0.094 -1.46,0.011 -2.918,-0.115 -4.354,-0.377 C 9.621,18.268 8.192,17.771 6.951,17.088 5.72,16.418 4.632,15.513 3.751,14.423 2.818,13.234 2.087,11.9 1.585,10.475 0.67,7.991 0.15,4.914 0.025,1.242 0.013,0.828 0.004,0.414 0,0 Z m -62.946,-1.8 c -0.01,-1.957 0.12,-3.912 0.388,-5.85 0.287,-1.981 0.733,-3.773 1.335,-5.377 0.572,-1.564 1.369,-3.035 2.368,-4.366 2.102,-2.758 5.202,-4.584 8.634,-5.083 1.124,-0.187 2.262,-0.28 3.402,-0.274 1.672,-0.017 3.338,0.19 4.955,0.615 2.828,0.735 5.33,2.397 7.103,4.719 1.196,1.589 2.11,3.37 2.701,5.268 0.532,1.621 0.913,3.421 1.143,5.402 0.187,1.642 0.277,3.294 0.271,4.946 0.01,1.923 -0.118,3.845 -0.381,5.749 -0.283,1.952 -0.72,3.718 -1.313,5.298 -0.578,1.588 -1.394,3.079 -2.421,4.422 -2.045,2.619 -4.995,4.379 -8.271,4.933 -1.281,0.241 -2.583,0.358 -3.887,0.351 -1.614,0.015 -3.224,-0.174 -4.79,-0.561 -2.859,-0.685 -5.397,-2.326 -7.194,-4.652 -1.146,-1.514 -2.025,-3.214 -2.6,-5.023 C -62.015,7.179 -62.391,5.468 -62.628,3.583 -62.848,1.798 -62.953,0 -62.946,-1.8 Z m 39.937,-8.127 c 0.513,2.678 0.761,5.399 0.743,8.124 0,0.429 -0.005,0.857 -0.017,1.284 -0.213,7.877 -2.408,14.173 -6.585,18.888 -4.401,4.97 -10.337,7.455 -17.807,7.455 -1.891,0.009 -3.779,-0.153 -5.64,-0.484 -4.816,-0.778 -9.22,-3.178 -12.485,-6.801 -2.889,-3.224 -4.819,-7.297 -5.791,-12.22 -0.509,-2.676 -0.756,-5.397 -0.737,-8.122 -0.008,-2.193 0.163,-4.384 0.511,-6.551 0.442,-2.826 1.288,-5.574 2.511,-8.16 0.187,-0.389 0.383,-0.774 0.589,-1.154 1.846,-3.5 4.606,-6.436 7.986,-8.492 1.62,-0.982 3.357,-1.753 5.17,-2.299 2.45,-0.724 4.992,-1.082 7.546,-1.063 1.838,-0.009 3.673,0.144 5.485,0.456 4.893,0.767 9.374,3.195 12.688,6.877 2.912,3.245 4.857,7.333 5.833,12.262 z m -56.015,-11.948 v -6.187 c -0.791,-0.38 -1.922,-0.702 -3.39,-0.964 -0.161,-0.029 -0.323,-0.056 -0.484,-0.082 -1.706,-0.277 -3.24,-0.414 -4.604,-0.414 -2.105,-0.034 -4.203,0.249 -6.226,0.835 -4.561,1.409 -7.439,4.591 -8.633,9.548 -0.445,1.948 -0.658,3.941 -0.635,5.939 v 31.764 h -7.649 v 3.898 l 7.649,3.362 3.412,11.401 h 4.678 V 24.849 h 15.491 V 18.564 H -94.906 V -12.86 c 0,-2.26 0.376,-4.151 1.128,-5.672 0.307,-0.628 0.697,-1.211 1.159,-1.736 1.527,-1.721 3.623,-2.582 6.287,-2.582 1.302,-0.002 2.602,0.092 3.89,0.281 0.084,0.011 0.168,0.024 0.252,0.037 0.389,0.061 0.777,0.129 1.165,0.201 0.745,0.138 1.375,0.28 1.89,0.426 0.037,0.009 0.074,0.02 0.111,0.03 z M 0,-21.679 h -0.584 c 0.237,-1.878 0.404,-3.764 0.502,-5.655 C -0.027,-28.403 0,-29.475 0,-30.546 V -52.52 h -8.087 v 77.369 h 6.576 l 1.12,-7.308 H 0 c 0.915,1.303 1.971,2.502 3.146,3.575 1.228,1.116 2.615,2.046 4.114,2.758 1.839,0.854 3.796,1.426 5.805,1.698 1.224,0.171 2.458,0.255 3.694,0.252 7.081,0 12.546,-2.42 16.395,-7.26 1.878,-2.412 3.284,-5.156 4.145,-8.089 1.086,-3.542 1.63,-7.634 1.63,-12.278 0.015,-2.672 -0.196,-5.34 -0.63,-7.976 -0.861,-5.04 -2.609,-9.194 -5.241,-12.461 -3.337,-4.182 -8.273,-6.777 -13.609,-7.155 -0.894,-0.086 -1.792,-0.129 -2.69,-0.127 -2.078,-0.012 -4.149,0.241 -6.162,0.751 -1.153,0.296 -2.277,0.689 -3.363,1.173 C 4.342,-26.3 1.846,-24.257 0,-21.679 Z"
           style="fill:none;stroke:#777777;stroke-width:2.009;stroke-linecap:round;stroke-linejoin:miter;stroke-miterlimit:11.339;stroke-dasharray:none;stroke-opacity:1"
           id="path766" /></g></g><g
       id="g768"
       transform="translate(260.75303,1219.4853)"><path
         d="m 0,0 h 16.812 c 0,3.071 -0.684,5.423 -2.052,7.056 C 13.736,8.273 12.31,9.084 10.74,9.343 10.13,9.456 9.51,9.51 8.889,9.508 7.952,9.516 7.018,9.387 6.117,9.125 4.807,8.739 3.629,7.998 2.713,6.985 1.324,5.462 0.452,3.41 0.096,0.831 0.058,0.555 0.026,0.278 0,0 m -13.703,-19.162 h -4.873 v 45.658 h 4.873 z m 79.198,4.019 v -3.724 c -0.53,-0.256 -1.307,-0.466 -2.333,-0.633 -1.029,-0.166 -1.954,-0.249 -2.776,-0.249 -1.267,-0.019 -2.53,0.151 -3.747,0.505 -2.747,0.848 -4.48,2.765 -5.199,5.748 -0.268,1.174 -0.396,2.374 -0.382,3.578 V 9.213 h -4.61 v 2.347 l 4.61,2.026 2.052,6.866 h 2.818 V 13 h 9.331 V 9.213 H 55.928 V -9.714 c -0.004,-0.577 0.044,-1.153 0.141,-1.721 0.201,-1.121 0.614,-2.033 1.239,-2.738 0.72,-0.81 1.707,-1.335 2.781,-1.48 0.332,-0.051 0.667,-0.076 1.003,-0.076 0.86,0 1.692,0.064 2.495,0.192 0.765,0.121 1.379,0.247 1.842,0.377 0.022,0.006 0.044,0.012 0.066,0.017 M 22.037,-0.881 V -3.962 H -0.116 c 0.021,-1.099 0.135,-2.193 0.34,-3.272 0.234,-1.188 0.587,-2.252 1.057,-3.192 0.384,-0.777 0.877,-1.495 1.463,-2.134 1.243,-1.329 2.865,-2.243 4.646,-2.617 0.984,-0.218 1.988,-0.324 2.996,-0.317 3.304,0.011 6.576,0.659 9.635,1.908 0.213,0.085 0.424,0.173 0.635,0.263 v -4.343 c -1.721,-0.742 -3.349,-1.275 -4.884,-1.598 -0.671,-0.139 -1.348,-0.244 -2.03,-0.315 -0.665,-0.069 -1.374,-0.118 -2.128,-0.144 -0.468,-0.017 -0.936,-0.026 -1.404,-0.026 -1.596,-0.013 -3.188,0.175 -4.736,0.562 -2.49,0.611 -4.751,1.923 -6.517,3.781 -2.748,2.895 -4.122,6.915 -4.122,12.061 -0.011,1.702 0.147,3.401 0.474,5.072 0.416,2.056 1.106,3.882 2.072,5.479 0.381,0.633 0.81,1.235 1.284,1.803 2.251,2.734 5.558,4.383 9.096,4.535 0.396,0.028 0.792,0.042 1.188,0.042 4.031,0 7.22,-1.325 9.567,-3.976 1.549,-1.774 2.611,-3.919 3.084,-6.225 0.299,-1.403 0.445,-2.833 0.437,-4.266 M 44.835,13 V 9.213 h -8.186 v -28.375 h -4.87 V 9.213 h -5.751 v 2.203 l 5.751,1.76 v 1.788 c -0.018,1.504 0.137,3.005 0.459,4.473 1.149,4.921 4.449,7.382 9.899,7.382 0.743,-0.004 1.485,-0.061 2.219,-0.17 1.151,-0.165 2.406,-0.45 3.765,-0.857 l -1.262,-3.903 c -1.334,0.431 -2.529,0.709 -3.586,0.834 -0.406,0.049 -0.815,0.075 -1.224,0.076 -0.533,0.005 -1.066,-0.055 -1.585,-0.178 -1.006,-0.228 -1.893,-0.818 -2.494,-1.656 -0.322,-0.461 -0.574,-0.967 -0.745,-1.502 -0.329,-0.979 -0.517,-2.195 -0.564,-3.648 -0.008,-0.244 -0.012,-0.488 -0.012,-0.732 V 13 Z"
         style="fill:#777777;fill-opacity:1;fill-rule:evenodd;stroke:none"
         id="path770" /></g><g
       id="g772"
       transform="translate(260.75303,1219.4853)"><path
         d="m 0,0 h 16.812 c 0,3.071 -0.684,5.423 -2.052,7.056 C 13.736,8.273 12.31,9.084 10.74,9.343 10.13,9.456 9.51,9.51 8.889,9.508 7.952,9.516 7.018,9.387 6.117,9.125 4.807,8.739 3.629,7.998 2.713,6.985 1.324,5.462 0.452,3.41 0.096,0.831 0.058,0.555 0.026,0.278 0,0 Z m -13.703,-19.162 h -4.873 v 45.658 h 4.873 z m 79.198,4.019 v -3.724 c -0.53,-0.256 -1.307,-0.466 -2.333,-0.633 -1.029,-0.166 -1.954,-0.249 -2.776,-0.249 -1.267,-0.019 -2.53,0.151 -3.747,0.505 -2.747,0.848 -4.48,2.765 -5.199,5.748 -0.268,1.174 -0.396,2.374 -0.382,3.578 V 9.213 h -4.61 v 2.347 l 4.61,2.026 2.052,6.866 h 2.818 V 13 h 9.331 V 9.213 H 55.928 V -9.714 c -0.004,-0.577 0.044,-1.153 0.141,-1.721 0.201,-1.121 0.614,-2.033 1.239,-2.738 0.72,-0.81 1.707,-1.335 2.781,-1.48 0.332,-0.051 0.667,-0.076 1.003,-0.076 0.86,0 1.692,0.064 2.495,0.192 0.765,0.121 1.379,0.247 1.842,0.377 0.022,0.006 0.044,0.012 0.066,0.017 z M 22.037,-0.881 V -3.962 H -0.116 c 0.021,-1.099 0.135,-2.193 0.34,-3.272 0.234,-1.188 0.587,-2.252 1.057,-3.192 0.384,-0.777 0.877,-1.495 1.463,-2.134 1.243,-1.329 2.865,-2.243 4.646,-2.617 0.984,-0.218 1.988,-0.324 2.996,-0.317 3.304,0.011 6.576,0.659 9.635,1.908 0.213,0.085 0.424,0.173 0.635,0.263 v -4.343 c -1.721,-0.742 -3.349,-1.275 -4.884,-1.598 -0.671,-0.139 -1.348,-0.244 -2.03,-0.315 -0.665,-0.069 -1.374,-0.118 -2.128,-0.144 -0.468,-0.017 -0.936,-0.026 -1.404,-0.026 -1.596,-0.013 -3.188,0.175 -4.736,0.562 -2.49,0.611 -4.751,1.923 -6.517,3.781 -2.748,2.895 -4.122,6.915 -4.122,12.061 -0.011,1.702 0.147,3.401 0.474,5.072 0.416,2.056 1.106,3.882 2.072,5.479 0.381,0.633 0.81,1.235 1.284,1.803 2.251,2.734 5.558,4.383 9.096,4.535 0.396,0.028 0.792,0.042 1.188,0.042 4.031,0 7.22,-1.325 9.567,-3.976 1.549,-1.774 2.611,-3.919 3.084,-6.225 0.299,-1.403 0.445,-2.833 0.437,-4.266 z M 44.835,13 V 9.213 h -8.186 v -28.375 h -4.87 V 9.213 h -5.751 v 2.203 l 5.751,1.76 v 1.788 c -0.018,1.504 0.137,3.005 0.459,4.473 1.149,4.921 4.449,7.382 9.899,7.382 0.743,-0.004 1.485,-0.061 2.219,-0.17 1.151,-0.165 2.406,-0.45 3.765,-0.857 l -1.262,-3.903 c -1.334,0.431 -2.529,0.709 -3.586,0.834 -0.406,0.049 -0.815,0.075 -1.224,0.076 -0.533,0.005 -1.066,-0.055 -1.585,-0.178 -1.006,-0.228 -1.893,-0.818 -2.494,-1.656 -0.322,-0.461 -0.574,-0.967 -0.745,-1.502 -0.329,-0.979 -0.517,-2.195 -0.564,-3.648 -0.008,-0.244 -0.012,-0.488 -0.012,-0.732 V 13 Z"
         style="fill:none;stroke:#777777;stroke-width:2.009;stroke-linecap:round;stroke-linejoin:miter;stroke-miterlimit:11.339;stroke-dasharray:none;stroke-opacity:1"
         id="path774" /></g><g
       id="g776"
       transform="translate(354.58286,884.89002)"><path
         d="m 0,0 c -0.006,-1.179 0.073,-2.356 0.235,-3.523 0.172,-1.193 0.439,-2.272 0.803,-3.238 0.343,-0.941 0.824,-1.826 1.425,-2.627 1.266,-1.662 3.134,-2.761 5.202,-3.062 0.676,-0.113 1.361,-0.17 2.046,-0.167 1.007,-0.01 2.011,0.115 2.985,0.371 1.704,0.443 3.21,1.444 4.278,2.843 1.653,2.141 2.48,5.276 2.48,9.403 0,2.623 -0.34,4.841 -1.02,6.656 -0.349,0.956 -0.841,1.853 -1.46,2.661 -1.231,1.578 -3.008,2.637 -4.981,2.971 C 11.221,12.434 10.438,12.505 9.652,12.5 8.68,12.51 7.71,12.396 6.766,12.164 5.045,11.75 3.517,10.761 2.435,9.36 1.267,7.854 0.519,5.815 0.19,3.246 0.058,2.169 -0.005,1.084 0,0 m 24.055,-4.893 c 0.307,1.613 0.456,3.251 0.445,4.893 0,0.258 -0.002,0.516 -0.009,0.774 -0.049,1.786 -0.266,3.436 -0.652,4.952 -0.57,2.377 -1.708,4.58 -3.314,6.423 -2.651,2.994 -6.226,4.49 -10.726,4.49 C 8.66,16.645 7.522,16.547 6.4,16.347 3.501,15.879 0.849,14.434 -1.117,12.251 -2.857,10.309 -4.02,7.855 -4.604,4.893 -4.91,3.28 -5.06,1.641 -5.049,0 c -0.005,-1.321 0.098,-2.641 0.306,-3.946 0.267,-1.702 0.777,-3.358 1.514,-4.915 0.113,-0.235 0.231,-0.466 0.354,-0.695 1.112,-2.108 2.775,-3.875 4.811,-5.113 0.975,-0.591 2.021,-1.057 3.112,-1.387 1.476,-0.436 3.008,-0.652 4.547,-0.64 4.655,0 8.303,1.472 10.945,4.416 0.613,0.684 1.155,1.429 1.618,2.222 0.879,1.507 1.511,3.228 1.897,5.165 M -9.272,16.285 -9.947,11.767 c -0.511,0.114 -1.027,0.209 -1.545,0.286 -0.514,0.073 -0.999,0.121 -1.454,0.141 -0.175,0.009 -0.349,0.014 -0.524,0.014 -2.364,0.015 -4.625,-0.963 -6.234,-2.695 -0.151,-0.154 -0.299,-0.311 -0.442,-0.473 -1.524,-1.752 -2.461,-3.936 -2.682,-6.248 -0.06,-0.547 -0.09,-1.097 -0.09,-1.647 v -17.254 h -4.87 v 32.161 h 4.019 l 0.559,-5.958 h 0.235 c 1.192,2.094 2.63,3.708 4.311,4.842 1.633,1.12 3.568,1.714 5.548,1.703 0.668,0.002 1.336,-0.027 2.001,-0.085 0.619,-0.054 1.234,-0.144 1.843,-0.269 M 84.713,-12.09 v -3.724 c -0.529,-0.256 -1.306,-0.466 -2.333,-0.633 -1.027,-0.166 -1.952,-0.249 -2.772,-0.249 -1.268,-0.02 -2.532,0.15 -3.75,0.505 -2.748,0.848 -4.481,2.764 -5.199,5.748 -0.267,1.173 -0.396,2.374 -0.383,3.577 V 12.265 H 65.67 v 2.347 l 4.606,2.027 2.053,6.866 h 2.817 v -7.453 h 9.332 V 12.265 H 75.146 V -6.662 c -0.003,-0.576 0.044,-1.152 0.142,-1.72 0.2,-1.121 0.613,-2.034 1.239,-2.739 0.72,-0.81 1.706,-1.335 2.781,-1.479 0.332,-0.051 0.667,-0.077 1.003,-0.077 0.862,0 1.693,0.065 2.495,0.193 0.765,0.121 1.379,0.247 1.842,0.377 0.022,0.006 0.043,0.011 0.065,0.017 M -33.656,16.052 v -3.787 h -8.189 v -28.374 h -4.87 v 28.374 h -5.752 v 2.203 l 5.752,1.76 v 1.789 c -0.017,1.504 0.138,3.004 0.462,4.473 1.149,4.921 4.447,7.382 9.896,7.382 0.743,-0.005 1.484,-0.061 2.219,-0.171 1.153,-0.164 2.409,-0.45 3.767,-0.856 l -1.261,-3.903 c -1.334,0.431 -2.53,0.708 -3.589,0.833 -0.406,0.05 -0.815,0.075 -1.224,0.077 -0.533,0.004 -1.064,-0.055 -1.582,-0.179 -1.007,-0.227 -1.895,-0.817 -2.497,-1.655 -0.322,-0.461 -0.574,-0.967 -0.746,-1.502 -0.329,-0.979 -0.516,-2.195 -0.561,-3.649 -0.008,-0.243 -0.013,-0.487 -0.014,-0.731 V 16.052 Z M 59.918,-16.109 H 55.046 V 4.697 c 0.005,0.722 -0.047,1.443 -0.156,2.157 -0.121,0.758 -0.311,1.439 -0.57,2.044 -0.256,0.612 -0.615,1.176 -1.063,1.666 -0.621,0.658 -1.395,1.152 -2.253,1.438 -0.59,0.207 -1.248,0.351 -1.973,0.428 -0.458,0.048 -0.918,0.071 -1.378,0.07 C 44.288,12.501 41.822,11.591 40.257,9.771 38.829,8.11 38.052,5.46 37.927,1.823 37.916,1.469 37.91,1.116 37.911,0.762 v -16.871 h -4.87 V 16.052 H 37 l 0.794,-4.402 h 0.233 c 0.997,1.584 2.397,2.811 4.198,3.683 1.473,0.704 3.065,1.129 4.694,1.252 0.439,0.037 0.88,0.055 1.321,0.054 1.096,0.007 2.192,-0.08 3.274,-0.261 1.179,-0.204 2.235,-0.528 3.166,-0.972 0.847,-0.397 1.626,-0.927 2.305,-1.57 0.923,-0.905 1.626,-2.009 2.055,-3.229 0.585,-1.578 0.878,-3.489 0.878,-5.734 z"
         style="fill:#777777;fill-opacity:1;fill-rule:evenodd;stroke:none"
         id="path778" /></g><g
       id="g780"
       transform="translate(354.58286,884.89002)"><path
         d="m 0,0 c -0.006,-1.179 0.073,-2.356 0.235,-3.523 0.172,-1.193 0.439,-2.272 0.803,-3.238 0.343,-0.941 0.824,-1.826 1.425,-2.627 1.266,-1.662 3.134,-2.761 5.202,-3.062 0.676,-0.113 1.361,-0.17 2.046,-0.167 1.007,-0.01 2.011,0.115 2.985,0.371 1.704,0.443 3.21,1.444 4.278,2.843 1.653,2.141 2.48,5.276 2.48,9.403 0,2.623 -0.34,4.841 -1.02,6.656 -0.349,0.956 -0.841,1.853 -1.46,2.661 -1.231,1.578 -3.008,2.637 -4.981,2.971 C 11.221,12.434 10.438,12.505 9.652,12.5 8.68,12.51 7.71,12.396 6.766,12.164 5.045,11.75 3.517,10.761 2.435,9.36 1.267,7.854 0.519,5.815 0.19,3.246 0.058,2.169 -0.005,1.084 0,0 Z m 24.055,-4.893 c 0.307,1.613 0.456,3.251 0.445,4.893 0,0.258 -0.002,0.516 -0.009,0.774 -0.049,1.786 -0.266,3.436 -0.652,4.952 -0.57,2.377 -1.708,4.58 -3.314,6.423 -2.651,2.994 -6.226,4.49 -10.726,4.49 C 8.66,16.645 7.522,16.547 6.4,16.347 3.501,15.879 0.849,14.434 -1.117,12.251 -2.857,10.309 -4.02,7.855 -4.604,4.893 -4.91,3.28 -5.06,1.641 -5.049,0 c -0.005,-1.321 0.098,-2.641 0.306,-3.946 0.267,-1.702 0.777,-3.358 1.514,-4.915 0.113,-0.235 0.231,-0.466 0.354,-0.695 1.112,-2.108 2.775,-3.875 4.811,-5.113 0.975,-0.591 2.021,-1.057 3.112,-1.387 1.476,-0.436 3.008,-0.652 4.547,-0.64 4.655,0 8.303,1.472 10.945,4.416 0.613,0.684 1.155,1.429 1.618,2.222 0.879,1.507 1.511,3.228 1.897,5.165 z M -9.272,16.285 -9.947,11.767 c -0.511,0.114 -1.027,0.209 -1.545,0.286 -0.514,0.073 -0.999,0.121 -1.454,0.141 -0.175,0.009 -0.349,0.014 -0.524,0.014 -2.364,0.015 -4.625,-0.963 -6.234,-2.695 -0.151,-0.154 -0.299,-0.311 -0.442,-0.473 -1.524,-1.752 -2.461,-3.936 -2.682,-6.248 -0.06,-0.547 -0.09,-1.097 -0.09,-1.647 v -17.254 h -4.87 v 32.161 h 4.019 l 0.559,-5.958 h 0.235 c 1.192,2.094 2.63,3.708 4.311,4.842 1.633,1.12 3.568,1.714 5.548,1.703 0.668,0.002 1.336,-0.027 2.001,-0.085 0.619,-0.054 1.234,-0.144 1.843,-0.269 z M 84.713,-12.09 v -3.724 c -0.529,-0.256 -1.306,-0.466 -2.333,-0.633 -1.027,-0.166 -1.952,-0.249 -2.772,-0.249 -1.268,-0.02 -2.532,0.15 -3.75,0.505 -2.748,0.848 -4.481,2.764 -5.199,5.748 -0.267,1.173 -0.396,2.374 -0.383,3.577 V 12.265 H 65.67 v 2.347 l 4.606,2.027 2.053,6.866 h 2.817 v -7.453 h 9.332 V 12.265 H 75.146 V -6.662 c -0.003,-0.576 0.044,-1.152 0.142,-1.72 0.2,-1.121 0.613,-2.034 1.239,-2.739 0.72,-0.81 1.706,-1.335 2.781,-1.479 0.332,-0.051 0.667,-0.077 1.003,-0.077 0.862,0 1.693,0.065 2.495,0.193 0.765,0.121 1.379,0.247 1.842,0.377 0.022,0.006 0.043,0.011 0.065,0.017 z M -33.656,16.052 v -3.787 h -8.189 v -28.374 h -4.87 v 28.374 h -5.752 v 2.203 l 5.752,1.76 v 1.789 c -0.017,1.504 0.138,3.004 0.462,4.473 1.149,4.921 4.447,7.382 9.896,7.382 0.743,-0.005 1.484,-0.061 2.219,-0.171 1.153,-0.164 2.409,-0.45 3.767,-0.856 l -1.261,-3.903 c -1.334,0.431 -2.53,0.708 -3.589,0.833 -0.406,0.05 -0.815,0.075 -1.224,0.077 -0.533,0.004 -1.064,-0.055 -1.582,-0.179 -1.007,-0.227 -1.895,-0.817 -2.497,-1.655 -0.322,-0.461 -0.574,-0.967 -0.746,-1.502 -0.329,-0.979 -0.516,-2.195 -0.561,-3.649 -0.008,-0.243 -0.013,-0.487 -0.014,-0.731 V 16.052 Z M 59.918,-16.109 H 55.046 V 4.697 c 0.005,0.722 -0.047,1.443 -0.156,2.157 -0.121,0.758 -0.311,1.439 -0.57,2.044 -0.256,0.612 -0.615,1.176 -1.063,1.666 -0.621,0.658 -1.395,1.152 -2.253,1.438 -0.59,0.207 -1.248,0.351 -1.973,0.428 -0.458,0.048 -0.918,0.071 -1.378,0.07 C 44.288,12.501 41.822,11.591 40.257,9.771 38.829,8.11 38.052,5.46 37.927,1.823 37.916,1.469 37.91,1.116 37.911,0.762 v -16.871 h -4.87 V 16.052 H 37 l 0.794,-4.402 h 0.233 c 0.997,1.584 2.397,2.811 4.198,3.683 1.473,0.704 3.065,1.129 4.694,1.252 0.439,0.037 0.88,0.055 1.321,0.054 1.096,0.007 2.192,-0.08 3.274,-0.261 1.179,-0.204 2.235,-0.528 3.166,-0.972 0.847,-0.397 1.626,-0.927 2.305,-1.57 0.923,-0.905 1.626,-2.009 2.055,-3.229 0.585,-1.578 0.878,-3.489 0.878,-5.734 z"
         style="fill:none;stroke:#777777;stroke-width:2.009;stroke-linecap:round;stroke-linejoin:miter;stroke-miterlimit:11.339;stroke-dasharray:none;stroke-opacity:1"
         id="path782" /></g><path
       d="m 654.49486,785.86542 h -552.756 v 198.425 h 552.756 z"
       style="fill:none;stroke:#000000;stroke-width:0.283;stroke-linecap:round;stroke-linejoin:miter;stroke-miterlimit:11.339;stroke-dasharray:none;stroke-opacity:1"
       id="path784" /><g
       id="g802"
       transform="translate(111.51872,913.56635)" /><path
       d="M 682.84086,757.51942 H 73.391858 V 1012.6386 H 682.84086 Z"
       style="fill:none;stroke:#000000;stroke-width:0.283;stroke-linecap:round;stroke-linejoin:miter;stroke-miterlimit:11.339;stroke-dasharray:none;stroke-opacity:1"
       id="path810" /><path
       d="m 1525.257,993.9498 h -251.149 v 387.212 h 251.149 z"
       style="fill:#666666;fill-opacity:1;fill-rule:nonzero;stroke:none"
       id="path812" /><path
       d="m 1382.28,731.4148 h -314.646 v 221.102 h 314.646 z"
       style="fill:#969696;fill-opacity:1;fill-rule:nonzero;stroke:none"
       id="path814" /><path
       d="m 1199.114,1162.7198 h -59.527 v 122.173 h 59.527 z"
       style="fill:#18660c;fill-opacity:1;fill-rule:nonzero;stroke:none"
       id="path816" /><g
       inkscape:groupmode="layer"
       id="layer4"
       inkscape:label="Wood Cut"
       style="display:inline"><path
         d="m 1057.4644,1394.5046 v -59.528 h -8.504 v -51.023 h 8.504 v -51.024 h -8.504 v -51.024 h 8.504 v -51.023 h -8.504 v -51.024 h 8.504 v -51.023 h -8.504 v -51.02402 h 8.504 v -51.024 h -8.504 v -51.023 h 8.504 v -51.024 h -8.504 v -51.024 h 8.504 v -51.023 -8.504 h 62.362 v -8.504 h 51.024 v 8.504 h 51.023 v -8.504 h 51.024 v 8.504 h 51.024 v -8.504 h 51.023 v 8.504 h 51.024 v -8.504 h 51.023 v 8.504 h 51.024 11.339 v 59.527 h 8.504 v 51.024 h -8.504 v 51.024 h 8.504 v 51.023 h -8.504 v 51.024 h 8.504 v 51.02402 h -8.504 v 51.023 h 8.504 v 51.024 h -8.504 v 51.023 h 8.504 v 51.024 h -8.504 v 51.024 h 8.504 v 51.023 h -8.504 v 51.024 8.504 h -62.363 v 8.504 h -51.023 v -8.504 h -51.024 v 8.504 h -51.023 v -8.504 h -51.024 v 8.504 h -51.024 v -8.504 h -51.023 v 8.504 h -51.024 v -8.504 h -51.023 z"
         style="display:inline;fill:none;stroke:#000000;stroke-width:0.283;stroke-linecap:round;stroke-linejoin:miter;stroke-miterlimit:11.339;stroke-dasharray:none;stroke-opacity:1"
         id="path708" /><g
         id="g666"
         style="display:inline"
         transform="translate(-164.26796,-2.9754835)"><g
           id="g668"
           clip-path="url(#clipPath672)"><g
             id="g674"
             transform="translate(1221.7324,688.8186)"><path
               d="m 0,0 v -59.527 h -8.504 v -51.024 H 0 v -51.023 h -8.504 v -51.024 H 0 v -51.024 h -8.504 v -51.024 H 0 v -51.023 h -8.504 v -51.023 H 0 v -51.024 H -8.504 V -518.74 H 0 v -51.024 h -8.504 v -51.023 H 0 v -51.024 -8.503 h 62.362 v -8.504 h 51.024 v 8.504 h 51.023 v -8.504 h 51.024 v 8.504 h 51.024 v -8.504 h 51.023 v 8.504 h 51.024 v -8.504 h 51.023 v 8.504 h 51.024 11.339 v 59.527 h 8.504 v 51.023 h -8.504 v 51.024 h 8.504 v 51.024 h -8.504 v 51.024 h 8.504 v 51.023 h -8.504 v 51.023 h 8.504 v 51.024 h -8.504 v 51.024 h 8.504 v 51.024 h -8.504 v 51.023 h 8.504 v 51.024 H 481.89 V -8.504 0 H 419.527 V 8.504 H 368.504 V 0 H 317.48 V 8.504 H 266.457 V 0 H 215.433 V 8.504 H 164.409 V 0 H 113.386 V 8.504 H 62.362 V 0 H 11.339 Z"
               style="fill:none;stroke:#000000;stroke-width:0.283;stroke-linecap:round;stroke-linejoin:miter;stroke-miterlimit:11.339;stroke-dasharray:none;stroke-opacity:1"
               id="path676" /></g></g></g><g
         id="g1039"
         style="display:inline"
         transform="translate(-14.984203,51.167802)"><g
           id="g638"
           transform="translate(1052.6064,1023.1628)"><path
             d="m 0,0 v 73.701 h -8.504 v 51.024 H 0 v 51.023 h -8.504 v 51.024 H 0 v 51.023 22.678 h -70.866 v -8.504 h -51.025 v 8.504 h -51.023 v -8.504 h -51.023 v 8.504 h -51.024 v -8.504 h -51.024 v 8.504 h -51.023 v -8.504 h -51.024 v 8.504 h -51.024 -19.842 v -73.701 h 8.504 v -51.024 h -8.504 v -51.023 h 8.504 V 73.701 h -8.504 V 22.677 0"
             style="fill:none;stroke:#000000;stroke-width:0.283;stroke-linecap:round;stroke-linejoin:miter;stroke-miterlimit:11.339;stroke-dasharray:none;stroke-opacity:1"
             id="path640" /></g><path
           d="m 981.74,1031.667 h -51.024 v -8.504 h 51.024 z"
           style="fill:none;stroke:#000000;stroke-width:0.283;stroke-linecap:round;stroke-linejoin:miter;stroke-miterlimit:11.339;stroke-dasharray:none;stroke-opacity:1"
           id="path642" /><path
           d="m 879.692,1031.667 h -51.023 v -8.504 h 51.023 z"
           style="fill:none;stroke:#000000;stroke-width:0.283;stroke-linecap:round;stroke-linejoin:miter;stroke-miterlimit:11.339;stroke-dasharray:none;stroke-opacity:1"
           id="path644" /><path
           d="m 777.646,1031.667 h -51.024 v -8.504 h 51.024 z"
           style="fill:none;stroke:#000000;stroke-width:0.283;stroke-linecap:round;stroke-linejoin:miter;stroke-miterlimit:11.339;stroke-dasharray:none;stroke-opacity:1"
           id="path646" /><path
           d="m 675.598,1031.667 h -51.023 v -8.504 h 51.023 z"
           style="fill:none;stroke:#000000;stroke-width:0.283;stroke-linecap:round;stroke-linejoin:miter;stroke-miterlimit:11.339;stroke-dasharray:none;stroke-opacity:1"
           id="path648" /><g
           id="g714"
           transform="translate(553.7085,1022.8699)"><path
             d="M 0,0 V -8.504 H 498.898 V 0"
             style="fill:none;stroke:#000000;stroke-width:0.283;stroke-linecap:round;stroke-linejoin:miter;stroke-miterlimit:11.339;stroke-dasharray:none;stroke-opacity:1"
             id="path716" /></g></g><g
         id="g1029"
         style="display:inline"
         transform="translate(22.183858,51.461702)"><g
           id="g678"
           transform="translate(505.0596,1022.8699)"><path
             d="m 0,0 v 73.701 h -8.504 v 51.023 H 0 v 51.024 h -8.504 v 51.023 H 0 v 51.024 22.677 h -70.866 v -8.504 h -51.024 v 8.504 h -51.023 v -8.504 h -51.024 v 8.504 h -51.023 v -8.504 h -51.024 v 8.504 h -51.024 v -8.504 h -51.023 v 8.504 h -51.024 -19.842 v -73.701 h 8.503 v -51.023 h -8.503 v -51.024 h 8.503 V 73.701 h -8.503 V 22.677 0"
             style="fill:none;stroke:#000000;stroke-width:0.283;stroke-linecap:round;stroke-linejoin:miter;stroke-miterlimit:11.339;stroke-dasharray:none;stroke-opacity:1"
             id="path680" /></g><path
           d="M 434.193,1031.374 H 383.17 v -8.504 h 51.023 z"
           style="fill:none;stroke:#000000;stroke-width:0.283;stroke-linecap:round;stroke-linejoin:miter;stroke-miterlimit:11.339;stroke-dasharray:none;stroke-opacity:1"
           id="path682" /><path
           d="m 332.146,1031.374 h -51.024 v -8.504 h 51.024 z"
           style="fill:none;stroke:#000000;stroke-width:0.283;stroke-linecap:round;stroke-linejoin:miter;stroke-miterlimit:11.339;stroke-dasharray:none;stroke-opacity:1"
           id="path684" /><path
           d="m 230.099,1031.374 h -51.024 v -8.504 h 51.024 z"
           style="fill:none;stroke:#000000;stroke-width:0.283;stroke-linecap:round;stroke-linejoin:miter;stroke-miterlimit:11.339;stroke-dasharray:none;stroke-opacity:1"
           id="path686" /><path
           d="M 128.052,1031.374 H 77.029 v -8.504 h 51.023 z"
           style="fill:none;stroke:#000000;stroke-width:0.283;stroke-linecap:round;stroke-linejoin:miter;stroke-miterlimit:11.339;stroke-dasharray:none;stroke-opacity:1"
           id="path688" /><g
           id="g710"
           transform="translate(6.1621,1022.8699)"><path
             d="M 0,0 V -8.504 H 498.897 V 0"
             style="fill:none;stroke:#000000;stroke-width:0.283;stroke-linecap:round;stroke-linejoin:miter;stroke-miterlimit:11.339;stroke-dasharray:none;stroke-opacity:1"
             id="path712" /></g></g><g
         id="g1995"
         transform="translate(-6.0201423,72.654426)"><g
           id="g794"
           transform="translate(678.9399,699.0383)"
           style="display:inline"><path
             d="m 0,0 c 0,-2.349 -1.903,-4.252 -4.252,-4.252 -2.348,0 -4.252,1.903 -4.252,4.252 0,2.348 1.904,4.252 4.252,4.252 C -1.903,4.252 0,2.348 0,0 Z"
             style="fill:none;stroke:#000000;stroke-width:0.283;stroke-linecap:round;stroke-linejoin:miter;stroke-miterlimit:11.339;stroke-dasharray:none;stroke-opacity:1"
             id="path796" /></g><g
           id="g798"
           transform="translate(97.837901,699.0383)"
           style="display:inline"><path
             d="m 0,0 c 0,-2.349 -1.904,-4.252 -4.252,-4.252 -2.349,0 -4.252,1.903 -4.252,4.252 0,2.348 1.903,4.252 4.252,4.252 C -1.904,4.252 0,2.348 0,0 Z"
             style="fill:none;stroke:#000000;stroke-width:0.283;stroke-linecap:round;stroke-linejoin:miter;stroke-miterlimit:11.339;stroke-dasharray:none;stroke-opacity:1"
             id="path800" /></g><path
           d="m 97.837901,925.8098 c 0,-2.348 -1.904,-4.252 -4.252,-4.252 -2.349,0 -4.252,1.904 -4.252,4.252 0,2.348 1.903,4.252 4.252,4.252 2.348,0 4.252,-1.904 4.252,-4.252 z"
           style="display:inline;fill:none;stroke:#000000;stroke-width:0.283;stroke-linecap:round;stroke-linejoin:miter;stroke-miterlimit:11.339;stroke-dasharray:none;stroke-opacity:1"
           id="path804" /><g
           id="g806"
           transform="translate(678.9399,925.8098)"
           style="display:inline"><path
             d="m 0,0 c 0,-2.348 -1.903,-4.252 -4.252,-4.252 -2.348,0 -4.252,1.904 -4.252,4.252 0,2.348 1.904,4.252 4.252,4.252 C -1.903,4.252 0,2.348 0,0 Z"
             style="fill:none;stroke:#000000;stroke-width:0.283;stroke-linecap:round;stroke-linejoin:miter;stroke-miterlimit:11.339;stroke-dasharray:none;stroke-opacity:1"
             id="path808" /></g><path
           d="m 663.8,669.88098 h -51.023 v -8.504 H 663.8 Z"
           style="fill:none;stroke:#000000;stroke-width:0.283;stroke-linecap:round;stroke-linejoin:miter;stroke-miterlimit:11.339;stroke-dasharray:none;stroke-opacity:1"
           id="path694" /><path
           d="m 561.752,669.88098 h -51.023 v -8.504 h 51.023 z"
           style="fill:none;stroke:#000000;stroke-width:0.283;stroke-linecap:round;stroke-linejoin:miter;stroke-miterlimit:11.339;stroke-dasharray:none;stroke-opacity:1"
           id="path696" /><path
           d="m 459.705,669.88098 h -51.023 v -8.504 h 51.023 z"
           style="fill:none;stroke:#000000;stroke-width:0.283;stroke-linecap:round;stroke-linejoin:miter;stroke-miterlimit:11.339;stroke-dasharray:none;stroke-opacity:1"
           id="path698" /><path
           d="m 357.658,669.88098 h -51.024 v -8.504 h 51.024 z"
           style="fill:none;stroke:#000000;stroke-width:0.283;stroke-linecap:round;stroke-linejoin:miter;stroke-miterlimit:11.339;stroke-dasharray:none;stroke-opacity:1"
           id="path700" /><path
           d="m 255.611,669.88098 h -51.023 v -8.504 h 51.023 z"
           style="fill:none;stroke:#000000;stroke-width:0.283;stroke-linecap:round;stroke-linejoin:miter;stroke-miterlimit:11.339;stroke-dasharray:none;stroke-opacity:1"
           id="path702" /><path
           d="M 153.563,669.88098 H 102.54 v -8.504 h 51.023 z"
           style="fill:none;stroke:#000000;stroke-width:0.283;stroke-linecap:round;stroke-linejoin:miter;stroke-miterlimit:11.339;stroke-dasharray:none;stroke-opacity:1"
           id="path704" /><g
           id="g1070"
           transform="translate(0,-1.6870611e-5)"><path
             d="m 0,0 v 73.701 h 8.504 v 51.024 H 0 v 51.023 h 8.504 v 51.023 H 0 v 51.024 22.678 h -59.527 v -8.505 h -51.024 v 8.505 h -51.024 v -8.505 h -51.023 v 8.505 h -51.024 v -8.505 h -51.024 v 8.505 h -51.023 v -8.505 h -51.024 v 8.505 h -51.023 v -8.505 h -51.024 v 8.505 h -51.024 v -8.505 h -51.023 v 8.505 h -51.024 -8.504 v -73.702 h -8.504 v -51.023 h 8.504 v -51.023 h -8.504 V 73.701 h 8.504 V 22.677 0"
             style="display:inline;fill:none;stroke:#000000;stroke-width:0.283;stroke-linecap:round;stroke-linejoin:miter;stroke-miterlimit:11.339;stroke-dasharray:none;stroke-opacity:1"
             id="path692"
             transform="translate(723.3271,661.3772)" /><g
             id="g718"
             transform="translate(43.064,661.3772)"><path
               d="M 0,0 V -8.504 H 680.17 V 0"
               style="fill:none;stroke:#000000;stroke-width:0.283;stroke-linecap:round;stroke-linejoin:miter;stroke-miterlimit:11.339;stroke-dasharray:none;stroke-opacity:1"
               id="path720" /></g></g></g><g
         id="g1106"
         transform="translate(-6.2241767,94.282454)"
         style="display:inline"><g
           id="g650"
           transform="translate(723.5312,299.5911)"><path
             d="m 0,0 v 73.701 h 8.504 v 51.024 H 0 v 51.023 h 8.504 v 51.023 H 0 v 51.025 22.677 h -59.528 v -8.504 h -51.023 v 8.504 h -51.024 v -8.504 h -51.024 v 8.504 h -51.023 v -8.504 h -51.024 v 8.504 h -51.023 v -8.504 h -51.024 v 8.504 h -51.024 v -8.504 h -51.023 v 8.504 h -51.024 v -8.504 h -51.024 v 8.504 h -51.023 -8.504 v -73.702 h -8.504 v -51.023 h 8.504 v -51.023 h -8.504 V 73.701 h 8.504 V 22.678 0"
             style="fill:none;stroke:#000000;stroke-width:0.283;stroke-linecap:round;stroke-linejoin:miter;stroke-miterlimit:11.339;stroke-dasharray:none;stroke-opacity:1"
             id="path652" /></g><path
           d="M 664.003,308.095 H 612.98 v -8.504 h 51.023 z"
           style="fill:none;stroke:#000000;stroke-width:0.283;stroke-linecap:round;stroke-linejoin:miter;stroke-miterlimit:11.339;stroke-dasharray:none;stroke-opacity:1"
           id="path654" /><path
           d="m 561.957,308.095 h -51.024 v -8.504 h 51.024 z"
           style="fill:none;stroke:#000000;stroke-width:0.283;stroke-linecap:round;stroke-linejoin:miter;stroke-miterlimit:11.339;stroke-dasharray:none;stroke-opacity:1"
           id="path656" /><path
           d="m 459.909,308.095 h -51.024 v -8.504 h 51.024 z"
           style="fill:none;stroke:#000000;stroke-width:0.283;stroke-linecap:round;stroke-linejoin:miter;stroke-miterlimit:11.339;stroke-dasharray:none;stroke-opacity:1"
           id="path658" /><path
           d="m 357.862,308.095 h -51.023 v -8.504 h 51.023 z"
           style="fill:none;stroke:#000000;stroke-width:0.283;stroke-linecap:round;stroke-linejoin:miter;stroke-miterlimit:11.339;stroke-dasharray:none;stroke-opacity:1"
           id="path660" /><path
           d="m 255.814,308.095 h -51.023 v -8.504 h 51.023 z"
           style="fill:none;stroke:#000000;stroke-width:0.283;stroke-linecap:round;stroke-linejoin:miter;stroke-miterlimit:11.339;stroke-dasharray:none;stroke-opacity:1"
           id="path662" /><path
           d="m 153.767,308.095 h -51.023 v -8.504 h 51.023 z"
           style="fill:none;stroke:#000000;stroke-width:0.283;stroke-linecap:round;stroke-linejoin:miter;stroke-miterlimit:11.339;stroke-dasharray:none;stroke-opacity:1"
           id="path664" /><g
           id="g722"
           transform="translate(43.2339,299.5911)"><path
             d="M 0,0 V -8.504 H 680.341 V 0"
             style="fill:none;stroke:#000000;stroke-width:0.283;stroke-linecap:round;stroke-linejoin:miter;stroke-miterlimit:11.339;stroke-dasharray:none;stroke-opacity:1"
             id="path724" /></g><path
           d="m 210.754,308.095 h -62.362 v 49.606 h 62.362 z"
           style="fill:none;stroke:#000000;stroke-width:0.283;stroke-linecap:round;stroke-linejoin:miter;stroke-miterlimit:11.339;stroke-dasharray:none;stroke-opacity:1"
           id="path726" /></g></g></g></svg>
